<svg baseProfile="full" height="296" version="1.1" viewBox="-1 -11 301 148" width="602" xmlns="http://www.w3.org/2000/svg" xmlns:ev="http://www.w3.org/2001/xml-events" xmlns:xlink="http://www.w3.org/1999/xlink"><defs /><defs><path d="M-1 5-1-5 5-5 5-3 1-3 1-1 5-1 5 3 9 3 9 5zM 3 3 3 1 1 1 1 3z" id="twWPdz" transform="translate(0,0) skewX(-5)" /><path d="M 1-4 2-3 3-4 3-5 9-5 9-3 4-3 3-2 4-1 5-1 5 1 4 1 3 2 4 3 5 3 5 9 3 9 3 4 2 3 1 4 1 9-1 9-1 3 0 3 1 2 0 1-1 1-1-1 0-1 1-2 0-3-5-3-5-5 1-5zM 3 0 2-1 1 0 2 1z" id="SWIyzu" transform="translate(0,0) skewX(-5)" /><path d="M-9-9-7-9-7-7-9-7zM-1 5-1 1-5 1-5-1-1-1-1-5 1-5 1-1 5-1 5 1 1 1 1 5zM 9-7 7-7 7-9 9-9zM 9-3 3-3 3-9 5-9 5-5 9-5zM-3-3-9-3-9-5-5-5-5-9-3-9z" id="PuGViZ" transform="translate(0,0) skewX(-5)" /><path d="M 3-1 5-1 5 5-1 5-1-1 1-1 1 3 3 3zM 3 7 3 9 1 9 1 7z" id="EAuBD" transform="translate(0,0) skewX(-5)" /><image height="20" id="twvnA" transform="translate(-10,-10)" width="20" xlink:href="file:///K:/W/Binkeul-PW-2018/pinkeul/-prepare-script/UKODE-SAMPLE/EMOJI/emoji/pushpin.png" /><image height="20" id="twvFM" transform="translate(-10,-10)" width="20" xlink:href="file:///K:/W/Binkeul-PW-2018/pinkeul/-prepare-script/UKODE-SAMPLE/EMOJI/emoji/black_circle.png" /><image height="20" id="twvMA" transform="translate(-10,-10)" width="20" xlink:href="file:///K:/W/Binkeul-PW-2018/pinkeul/-prepare-script/UKODE-SAMPLE/EMOJI/emoji/neutral_face.png" /><image height="20" id="twvFI" transform="translate(-10,-10)" width="20" xlink:href="file:///K:/W/Binkeul-PW-2018/pinkeul/-prepare-script/UKODE-SAMPLE/EMOJI/emoji/beginner.png" /><image height="20" id="twvkA" transform="translate(-10,-10)" width="20" xlink:href="file:///K:/W/Binkeul-PW-2018/pinkeul/-prepare-script/UKODE-SAMPLE/EMOJI/emoji/joy.png" /><image height="20" id="twvnE" transform="translate(-10,-10)" width="20" xlink:href="file:///K:/W/Binkeul-PW-2018/pinkeul/-prepare-script/UKODE-SAMPLE/EMOJI/emoji/rage.png" /><image height="20" id="twvOBY" transform="translate(-10,-10)" width="20" xlink:href="file:///K:/W/Binkeul-PW-2018/pinkeul/-prepare-script/UKODE-SAMPLE/EMOJI/emoji/turtle.png" /><path d="M-1 5-1 4-4 1-5 1-5-1-1-1-1-3-5-3-5-5-1-5-1-9 1-9 1-5 9-5 9 5 3 5 3 1-2 1 0 3 1 3 1 5zM 7 1 5 1 5 3 7 3zM 1-3 1-1 7-1 7-3z" id="VxSPBw" transform="translate(0,0) skewX(-5)" /><path d="M-9-3-9-5 1-5 1 3 3 3 3-1 5-1 5 5 1 5 1 9-5 9-5 7-1 7-1 5-9 5-9 3-1 3-1-3zM-5 1-5-1-3-1-3 1z" id="yeOoHq" transform="translate(0,0) skewX(-5)" /><path d="M 1-4 4-1 5-1 5 1 3 1 3 0 1-2 1 3 3 3 3 5 2 5 4 7 5 7 5 9 3 9 3 8 1 6 1 9-1 9-1 6-3 8-3 9-5 9-5 7-4 7-2 5-3 5-3 3-1 3-1-2-3 0-3 1-5 1-5-1-4-1-1-4-1-5 1-5z" id="UMQVfb" transform="translate(0,0) skewX(-5)" /><path d="M 8-1 9-1 9 1 7 1 7 0 4-3 0-3-3 0-3 1-5 1-5-1-4-1-1-4-1-5 5-5 5-4zM-1 5-1-1 5-1 5 5zM 3 3 3 1 1 1 1 3z" id="OEQYnB" transform="translate(0,0) skewX(-5)" /><image height="20" id="twvGi" transform="translate(-10,-10)" width="20" xlink:href="file:///K:/W/Binkeul-PW-2018/pinkeul/-prepare-script/UKODE-SAMPLE/EMOJI/emoji/chart.png" /><image height="20" id="twvEm" transform="translate(-10,-10)" width="20" xlink:href="file:///K:/W/Binkeul-PW-2018/pinkeul/-prepare-script/UKODE-SAMPLE/EMOJI/emoji/angry.png" /><image height="20" id="twvIm" transform="translate(-10,-10)" width="20" xlink:href="file:///K:/W/Binkeul-PW-2018/pinkeul/-prepare-script/UKODE-SAMPLE/EMOJI/emoji/expressionless.png" /><image height="20" id="twvma" transform="translate(-10,-10)" width="20" xlink:href="file:///K:/W/Binkeul-PW-2018/pinkeul/-prepare-script/UKODE-SAMPLE/EMOJI/emoji/older_woman.png" /><image height="20" id="twvOCi" transform="translate(-10,-10)" width="20" xlink:href="file:///K:/W/Binkeul-PW-2018/pinkeul/-prepare-script/UKODE-SAMPLE/EMOJI/emoji/zap.png" /><image height="20" id="twvha" transform="translate(-10,-10)" width="20" xlink:href="file:///K:/W/Binkeul-PW-2018/pinkeul/-prepare-script/UKODE-SAMPLE/EMOJI/emoji/currency_exchange.png" /><image height="20" id="twvna" transform="translate(-10,-10)" width="20" xlink:href="file:///K:/W/Binkeul-PW-2018/pinkeul/-prepare-script/UKODE-SAMPLE/EMOJI/emoji/put_litter_in_its_place.png" /><image height="20" id="twvHe" transform="translate(-10,-10)" width="20" xlink:href="file:///K:/W/Binkeul-PW-2018/pinkeul/-prepare-script/UKODE-SAMPLE/EMOJI/emoji/confused.png" /><image height="20" id="twvLa" transform="translate(-10,-10)" width="20" xlink:href="file:///K:/W/Binkeul-PW-2018/pinkeul/-prepare-script/UKODE-SAMPLE/EMOJI/emoji/lipstick.png" /><image height="20" id="twvFa" transform="translate(-10,-10)" width="20" xlink:href="file:///K:/W/Binkeul-PW-2018/pinkeul/-prepare-script/UKODE-SAMPLE/EMOJI/emoji/banana.png" /><path d="M-5 2-4 3-3 3-3 9-5 9-5 4-6 3-7 4-7 9-9 9-9 3-8 3-7 2-8 1-9 1-9-1-4-1-3-2-4-3-9-3-9-5-3-5-3-4-2-3-1-4-1-5 1-5 1 0 2 1 3 0 3-5 5-5 5 1 4 1 3 2 4 3 5 3 5 5 4 5 1 8 1 9-1 9-1 3 0 3 1 2 0 1-1 1-1 0-2-1-3 0-3 1-4 1zM 1 4 1 6 3 4 2 3z" id="WCEVaf" transform="translate(0,0) skewX(-5)" /><path d="M 9 3 9 5 1 5 1 9-1 9-1 1-5 1-5-1-2-1-4-3-5-3-5-5 5-5 5 3zM 2 3 1 2 1 3zM 3 2 3 1 2 1zM 3-3-2-3 0-1 3-1z" id="ytSOHT" transform="translate(0,0) skewX(-5)" /><path d="M 0 1-5 1-5-1-2-1-4-3-5-3-5-5-3-5-3-4-1-2-1-5 1-5 1 0 4 3 5 3 5 4 8 7 9 7 9 9 7 9 7 8 4 5 3 5 3 4z" id="vSQXEi" transform="translate(0,0) skewX(-5)" /><path d="M-1 5-1-9 5-9 5-3 1-3 1 5zM 3 3 5 3 5 5 3 5zM 1-5 3-5 3-7 1-7z" id="WMAOBx" transform="translate(0,0) skewX(-5)" /><path d="M-5-3-5-9-3-9-3-5 3-5 3-9 5-9 5-3zM 3 9 3 8 0 5-3 8-3 9-5 9-5 7-4 7-1 4-4 1-5 1-5-1-3-1-3 0-1 2-1-1 1-1 1 2 3 0 3-1 5-1 5 1 4 1 1 4 4 7 5 7 5 9zM-1-9 1-9 1-7-1-7z" id="wzCpCL" transform="translate(0,0) skewX(-5)" /><image height="20" id="twvKJ" transform="translate(-10,-10)" width="20" xlink:href="file:///K:/W/Binkeul-PW-2018/pinkeul/-prepare-script/UKODE-SAMPLE/EMOJI/emoji/incoming_envelope.png" /><image height="20" id="twvlJ" transform="translate(-10,-10)" width="20" xlink:href="file:///K:/W/Binkeul-PW-2018/pinkeul/-prepare-script/UKODE-SAMPLE/EMOJI/emoji/mouse2.png" /><image height="20" id="twvNJ" transform="translate(-10,-10)" width="20" xlink:href="file:///K:/W/Binkeul-PW-2018/pinkeul/-prepare-script/UKODE-SAMPLE/EMOJI/emoji/police_car.png" /><image height="20" id="twvFB" transform="translate(-10,-10)" width="20" xlink:href="file:///K:/W/Binkeul-PW-2018/pinkeul/-prepare-script/UKODE-SAMPLE/EMOJI/emoji/bangbang.png" /><image height="20" id="twveJ" transform="translate(-10,-10)" width="20" xlink:href="file:///K:/W/Binkeul-PW-2018/pinkeul/-prepare-script/UKODE-SAMPLE/EMOJI/emoji/arrow_up_small.png" /><image height="20" id="twvgB" transform="translate(-10,-10)" width="20" xlink:href="file:///K:/W/Binkeul-PW-2018/pinkeul/-prepare-script/UKODE-SAMPLE/EMOJI/emoji/clap.png" /><image height="20" id="twvmB" transform="translate(-10,-10)" width="20" xlink:href="file:///K:/W/Binkeul-PW-2018/pinkeul/-prepare-script/UKODE-SAMPLE/EMOJI/emoji/on.png" /><image height="20" id="twvObH" transform="translate(-10,-10)" width="20" xlink:href="file:///K:/W/Binkeul-PW-2018/pinkeul/-prepare-script/UKODE-SAMPLE/EMOJI/emoji/umbrella.png" /><image height="20" id="twvEJ" transform="translate(-10,-10)" width="20" xlink:href="file:///K:/W/Binkeul-PW-2018/pinkeul/-prepare-script/UKODE-SAMPLE/EMOJI/emoji/airplane.png" /><path d="M 0-7-2-5 0-5 3-8 3-9 5-9 5-7 4-7 1-4 1 1-1 1-1-3-3-3-3 3 3 3 3-1 9-1 9 5 7 5 7 1 5 1 5 9-1 9-1 5-5 5-5-3-7-3-7 1-9 1-9-5-4-5-1-8-1-9 1-9 1-7zM-5 7-3 7-3 9-5 9zM 9-7 8-7 5-4 5-3 3-3 3-5 4-5 7-8 7-9 9-9zM 1 5 1 7 3 7 3 5zM-7 7-7 9-9 9-9 7z" id="TkWoAU" transform="translate(0,0) skewX(-5)" /><path d="M 1 0 1 2 3 0 3-1 5-1 5 1 4 1 1 4 1 5-1 5-1-3-3-3-3 1-5 1-5-3-9-3-9-5-5-5-5-7-9-7-9-9-3-9-3-5 1-5 1-2 3-4 3-5 5-5 5-3 4-3z" id="ZOIRVp" transform="translate(0,0) skewX(-5)" /><path d="M-1 5-1 0-4-3-5-3-5-9 9-9 9-3 8-3 5 0 5 5zM-3-5 7-5 7-7-3-7zM 3 3 3-1 4-1 6-3-2-3 0-1 1-1 1 3z" id="ppSvZt" transform="translate(0,0) skewX(-5)" /><image height="20" id="twvke" transform="translate(-10,-10)" width="20" xlink:href="file:///K:/W/Binkeul-PW-2018/pinkeul/-prepare-script/UKODE-SAMPLE/EMOJI/emoji/kissing_face.png" /><path d="M-2 5 0 7 1 7 1 9-1 9-1 8-3 6-3 9-5 9-5-3-7-3-7 1-9 1-9-5 1-5 1-1 3-1 3-5 9-5 9-3 5-3 5-1 9-1 9 5 7 5 7 1 5 1 5 9 3 9 3 5zM-3-3-3 3-1 3-1-3zM 3 3 3 1 1 1 1 3z" id="ZOYxet" transform="translate(0,0) skewX(-5)" /><path d="M 1-4 3-2 3-5 5-5 5 1 3 1 3 0 1-2 1 3 5 3 5 5-1 5-1-5 1-5zM-5 3-5-2-7 0-7 1-9 1-9-5-7-5-7-2-5-4-5-5-3-5-3 5-9 5-9 3z" id="WrSWHc" transform="translate(0,0) skewX(-5)" /><image height="20" id="twvif" transform="translate(-10,-10)" width="20" xlink:href="file:///K:/W/Binkeul-PW-2018/pinkeul/-prepare-script/UKODE-SAMPLE/EMOJI/emoji/first_quarter_moon.png" /><image height="20" id="twvin" transform="translate(-10,-10)" width="20" xlink:href="file:///K:/W/Binkeul-PW-2018/pinkeul/-prepare-script/UKODE-SAMPLE/EMOJI/emoji/four.png" /><image height="20" id="twvFj" transform="translate(-10,-10)" width="20" xlink:href="file:///K:/W/Binkeul-PW-2018/pinkeul/-prepare-script/UKODE-SAMPLE/EMOJI/emoji/bicyclist.png" /><image height="20" id="twvMb" transform="translate(-10,-10)" width="20" xlink:href="file:///K:/W/Binkeul-PW-2018/pinkeul/-prepare-script/UKODE-SAMPLE/EMOJI/emoji/new_moon.png" /><image height="20" id="twvHj" transform="translate(-10,-10)" width="20" xlink:href="file:///K:/W/Binkeul-PW-2018/pinkeul/-prepare-script/UKODE-SAMPLE/EMOJI/emoji/couple.png" /><image height="20" id="twvmj" transform="translate(-10,-10)" width="20" xlink:href="file:///K:/W/Binkeul-PW-2018/pinkeul/-prepare-script/UKODE-SAMPLE/EMOJI/emoji/palm_tree.png" /><image height="20" id="twvIb" transform="translate(-10,-10)" width="20" xlink:href="file:///K:/W/Binkeul-PW-2018/pinkeul/-prepare-script/UKODE-SAMPLE/EMOJI/emoji/e-mail.png" /><path d="M-5 7-3 7-3 9-5 9zM 1 5 1 9-1 9-1 5-5 5-5 1-9 1-9-1-5-1-5-3-9-3-9-5-3-5-3-1 1-1 1 3 5 3 5 5zM-3 1-3 3-1 3-1 1zM 5-1 5 1 3 1 3-1z" id="QPEoHQ" transform="translate(0,0) skewX(-5)" /><image height="20" id="twvOCG" transform="translate(-10,-10)" width="20" xlink:href="file:///K:/W/Binkeul-PW-2018/pinkeul/-prepare-script/UKODE-SAMPLE/EMOJI/emoji/wrench.png" /><image height="20" id="twvGO" transform="translate(-10,-10)" width="20" xlink:href="file:///K:/W/Binkeul-PW-2018/pinkeul/-prepare-script/UKODE-SAMPLE/EMOJI/emoji/church.png" /><image height="20" id="twvOAK" transform="translate(-10,-10)" width="20" xlink:href="file:///K:/W/Binkeul-PW-2018/pinkeul/-prepare-script/UKODE-SAMPLE/EMOJI/emoji/satellite.png" /><image height="20" id="twvNK" transform="translate(-10,-10)" width="20" xlink:href="file:///K:/W/Binkeul-PW-2018/pinkeul/-prepare-script/UKODE-SAMPLE/EMOJI/emoji/postal_horn.png" /><image height="20" id="twvOaQ" transform="translate(-10,-10)" width="20" xlink:href="file:///K:/W/Binkeul-PW-2018/pinkeul/-prepare-script/UKODE-SAMPLE/EMOJI/emoji/star2.png" /><image height="20" id="twvmG" transform="translate(-10,-10)" width="20" xlink:href="file:///K:/W/Binkeul-PW-2018/pinkeul/-prepare-script/UKODE-SAMPLE/EMOJI/emoji/orange_book.png" /><image height="20" id="twvlK" transform="translate(-10,-10)" width="20" xlink:href="file:///K:/W/Binkeul-PW-2018/pinkeul/-prepare-script/UKODE-SAMPLE/EMOJI/emoji/moyai.png" /><path d="M-1 5-1 3 1 3 1 5zM-5-3-5-5 5-5 5-3 1-3 1 0 4 3 5 3 5 5 3 5 3 4 0 1-3 4-3 5-5 5-5 3-4 3-1 0-1-3zM-5 1-5-1-3-1-3 1zM 5-1 5 1 3 1 3-1zM-1-9 1-9 1-7-1-7z" id="ybOUyq" transform="translate(0,0) skewX(-5)" /><path d="M-9-9-7-9-7-8-4-5-3-5-3-1 3-1 3-4 0-7-1-7-1-9 1-9 1-8 4-5 5-5 5 1 1 1 1 5-1 5-1 1-5 1-5-4-8-7-9-7zM-1-3-1-5 1-5 1-3z" id="WnSVsR" transform="translate(0,0) skewX(-5)" /><path d="M-5 7-4 7-1 4-1 2-3 4-3 5-5 5-5 3-4 3-1 0-1-2-3 0-3 1-5 1-5-1-4-1-1-4-1-9 1-9 1-5 5-5 5-3 1-3 1-1 5-1 5 1 1 1 1 3 5 3 5 5 1 5 1 9-1 9-1 6-3 8-3 9-5 9z" id="UjGvFl" transform="translate(0,0) skewX(-5)" /><path d="M-4 3-3 3-3 9-5 9-5 4-8 1-9 1-9-1-7-1-7 0zM-5-3-5-5-1-5-1-9 1-9 1-5 5-5 5-3 1-3 1 0 4 3 7 0 7-1 9-1 9 1 8 1 5 4 5 9 3 9 3 4 0 1-1 1-1-3zM 1 9-1 9-1 4-4 1-5 1-5-1-3-1-3 0 0 3 1 3zM 5-1 5 1 3 1 3-1z" id="ssSOvc" transform="translate(0,0) skewX(-5)" /><path d="M-9-9-7-9-7-8-5-6-5-9-3-9-3 0 0 3 3 0 1-2 1 1-1 1-1-5 1-5 1-4 4-1 5-1 5 1 4 1 1 4 1 5-1 5-1 4-4 1-5 1-5-4-8-7-9-7z" id="WOEvsi" transform="translate(0,0) skewX(-5)" /><path d="M-1 5-1-1 5-1 5 5zM-3-3-3 5-5 5-5-9 1-9 1-3zM-3-5-1-5-1-7-3-7zM 9 5 7 5 7-3 3-3 3-9 9-9zM 5-7 5-5 7-5 7-7zM 3 3 3 1 1 1 1 3z" id="yCQPdz" transform="translate(0,0) skewX(-5)" /><image height="20" id="twvli" transform="translate(-10,-10)" width="20" xlink:href="file:///K:/W/Binkeul-PW-2018/pinkeul/-prepare-script/UKODE-SAMPLE/EMOJI/emoji/mouse.png" /><image height="20" id="twvgg" transform="translate(-10,-10)" width="20" xlink:href="file:///K:/W/Binkeul-PW-2018/pinkeul/-prepare-script/UKODE-SAMPLE/EMOJI/emoji/clock2.png" /><path d="M-9-9 1-9 1 1 0 1-2 3 3 3 3-1 5-1 5 0 8 3 9 3 9 5 7 5 7 4 5 2 5 4 8 7 9 7 9 9 7 9 7 8 4 5-5 5-5 3-4 3-2 1-5 1-5-3-7-3-7 5-9 5-9-5-1-5-1-7-9-7zM 8-1 9-1 9 1 7 1 7 0 4-3 3-3 3-5 5-5 5-4zM-3-3-3-1-1-1-1-3z" id="TwCOsy" transform="translate(0,0) skewX(-5)" /><path d="M 1-4 3-2 3-9 5-9 5 1 4 1 1 4 1 5-1 5-1 3 0 3 2 1 0 1-3 4-3 5-5 5-5 3-4 3-1 0-1-1 2-1 0-3-3 0-3 1-5 1-5-1-4-1-1-4-1-5 1-5z" id="vkKqrM" transform="translate(0,0) skewX(-5)" /><image height="20" id="twvObq" transform="translate(-10,-10)" width="20" xlink:href="file:///K:/W/Binkeul-PW-2018/pinkeul/-prepare-script/UKODE-SAMPLE/EMOJI/emoji/warning.png" /><path d="M-1 9-1 7 2 7 0 5-3 8-3 9-5 9-5 7-4 7-2 5-5 5-5 3-2 3-4 1-5 1-5-1-3-1-3 0 0 3 1 3 1 4 4 7 5 7 5 9zM 5 1 5 5 3 5 3 1-1 1-1-1 3-1 3-3-1-3-1-5 5-5 5-1 9-1 9 1zM 9-3 7-3 7-5 9-5z" id="UFEwnm" transform="translate(0,0) skewX(-5)" /><path d="M-5 3 1 3 1 9-5 9zM-3 5-3 7-1 7-1 5zM-1-5 1-5 1-1 3-1 3-5 5-5 5 5 3 5 3 1-5 1-5-5-3-5-3-1-1-1z" id="WTUOii" transform="translate(0,0) skewX(-5)" /><path d="M-1 5-1 1-5 1-5-1-1-1-1-3-5-3-5-5 1-5 1-1 5-1 5 1 1 1 1 3 5 3 5 5zM 9 3 9 5 7 5 7 3zM-7-3-9-3-9-5-7-5z" id="ycGVJl" transform="translate(0,0) skewX(-5)" /><path d="M-1 5-1 1-9 1-9-1 5-1 5 1 1 1 1 3 9 3 9 5zM-9-3-9-5 5-5 5-3z" id="ycGVgK" transform="translate(0,0) skewX(-5)" /><path d="M-5 5-5 3-1 3-1 1-5 1-5-1-4-1-2-3-5-3-5-5-2-5-4-7-5-7-5-9-3-9-3-8 0-5 2-5 0-7-1-7-1-9 1-9 1-8 4-5 5-5 5-3 0-3-2-1 9-1 9 1 5 1 5 3 9 3 9 5 3 5 3 1 1 1 1 5z" id="seCPdv" transform="translate(0,0) skewX(-5)" /><image height="20" id="twvEL" transform="translate(-10,-10)" width="20" xlink:href="file:///K:/W/Binkeul-PW-2018/pinkeul/-prepare-script/UKODE-SAMPLE/EMOJI/emoji/anchor.png" /><image height="20" id="twvOaZ" transform="translate(-10,-10)" width="20" xlink:href="file:///K:/W/Binkeul-PW-2018/pinkeul/-prepare-script/UKODE-SAMPLE/EMOJI/emoji/sushi.png" /><image height="20" id="twvjH" transform="translate(-10,-10)" width="20" xlink:href="file:///K:/W/Binkeul-PW-2018/pinkeul/-prepare-script/UKODE-SAMPLE/EMOJI/emoji/hearts.png" /><image height="20" id="twveP" transform="translate(-10,-10)" width="20" xlink:href="file:///K:/W/Binkeul-PW-2018/pinkeul/-prepare-script/UKODE-SAMPLE/EMOJI/emoji/balloon.png" /><image height="20" id="twvOBL" transform="translate(-10,-10)" width="20" xlink:href="file:///K:/W/Binkeul-PW-2018/pinkeul/-prepare-script/UKODE-SAMPLE/EMOJI/emoji/tiger2.png" /><image height="20" id="twvOaN" transform="translate(-10,-10)" width="20" xlink:href="file:///K:/W/Binkeul-PW-2018/pinkeul/-prepare-script/UKODE-SAMPLE/EMOJI/emoji/sparkling_heart.png" /><image height="20" id="twvkH" transform="translate(-10,-10)" width="20" xlink:href="file:///K:/W/Binkeul-PW-2018/pinkeul/-prepare-script/UKODE-SAMPLE/EMOJI/emoji/kr.png" /><path d="M 5-5 5 5 3 5 3-3-2-3 0-1 1-1 1 9-1 9-1 8-4 5-5 5-5-5zM-3 4-1 6-1 0-3-2z" id="zkGYdF" transform="translate(0,0) skewX(-5)" /><path d="M-1 5-1 4-3 2-3 5-5 5-5 1-7 1-7 5-9 5-9-1-5-1-5-5 0-5 3-8 3-9 9-9 9-7 4-7 1-4 1 0 4 3 5 3 5 5 3 5 3 4 1 2 1 5zM-3-3-3 0-1 2-1-3zM 3 1 3-5 9-5 9 1zM 7-3 5-3 5-1 7-1z" id="vCAuGo" transform="translate(0,0) skewX(-5)" /><path d="M 1-4 4-1 5-1 5 5 4 5 2 7 9 7 9 9-1 9-1 7 0 7 2 5-1 5-1-1 1-1 1 3 3 3 3 0 0-3-3 0-3 5-5 5-5-1-4-1-1-4-1-5 1-5z" id="ULEvxB" transform="translate(0,0) skewX(-5)" /><image height="20" id="twvFl" transform="translate(-10,-10)" width="20" xlink:href="file:///K:/W/Binkeul-PW-2018/pinkeul/-prepare-script/UKODE-SAMPLE/EMOJI/emoji/birthday.png" /><image height="20" id="twved" transform="translate(-10,-10)" width="20" xlink:href="file:///K:/W/Binkeul-PW-2018/pinkeul/-prepare-script/UKODE-SAMPLE/EMOJI/emoji/arrow_heading_down.png" /><path d="M-9-9-7-9-7-8-4-5 1-5 1-3-5-3-5-4-8-7-9-7zM-5 5-5 0-8-3-9-3-9-5-7-5-7-4-4-1-3-1-3 3-1 3-1-1 1-1 1 5zM 3 3 5 3 5 5 3 5zM 5-3 3-3 3-5 5-5zM 5-1 5 1 3 1 3-1z" id="yiCUwZ" transform="translate(0,0) skewX(-5)" /><path d="M 3-2 1 0 1 3 3 3zM-5 5-5-1-4-1-1-4-1-5 1-5 1-3 0-3-3 0-3 2-1 0-1-1 0-1 3-4 3-5 5-5 5 5zM-9-1-8-1-5-4-5-5-3-5-3-3-4-3-7 0-7 5-9 5zM-1 2-2 3-1 3z" id="vqSxID" transform="translate(0,0) skewX(-5)" /><image height="20" id="twvLh" transform="translate(-10,-10)" width="20" xlink:href="file:///K:/W/Binkeul-PW-2018/pinkeul/-prepare-script/UKODE-SAMPLE/EMOJI/emoji/mailbox_closed.png" /><image height="20" id="twvih" transform="translate(-10,-10)" width="20" xlink:href="file:///K:/W/Binkeul-PW-2018/pinkeul/-prepare-script/UKODE-SAMPLE/EMOJI/emoji/fish_cake.png" /><image height="20" id="twvil" transform="translate(-10,-10)" width="20" xlink:href="file:///K:/W/Binkeul-PW-2018/pinkeul/-prepare-script/UKODE-SAMPLE/EMOJI/emoji/foggy.png" /><path d="M 7 7 7 3 9 3 9 9-5 9-5 7zM-5 5-5-5 1-5 1-3-2-3 0-1 3-1 3-5 9-5 9 1 7 1 7-3 5-3 5 1 0 1-2 3 1 3 1 5zM-3 2-1 0-3-2z" id="wOEVvm" transform="translate(0,0) skewX(-5)" /><path d="M-9-9-3-9-3-1 1-1 1 3 5 3 5 5-1 5-1 1-5 1-5-3-7-3-7 5-9 5zM-1-3-1-9 1-9 1-3zM-5-5-5-7-7-7-7-5zM-5 5-5 3-3 3-3 5zM 5 1 3 1 3-5 5-5z" id="WpKocB" transform="translate(0,0) skewX(-5)" /><path d="M 1-4 4-1 5-1 5 5 4 5 1 8 1 9-1 9-1 7 0 7 3 4 3 0 0-3-1-3-1-5 1-5zM 8-1 9-1 9 5 8 5 5 8 5 9 3 9 3 7 4 7 7 4 7 0 4-3 3-3 3-5 5-5 5-4zM-5 5-5-1 1-1 1 5zM-3 1-3 3-1 3-1 1z" id="ODUXvN" transform="translate(0,0) skewX(-5)" /><path d="M-5 5-5-1-1-1-1-5 1-5 1-1 3-1 3-5 5-5 5-1 7-1 7-5 9-5 9 1 5 1 5 4 8 7 9 7 9 9 7 9 7 8 5 6 5 9 3 9 3 6 1 8 1 9-1 9-1 7 0 7 3 4 3 1 1 1 1 5zM-3 1-3 3-1 3-1 1z" id="XIAxDH" transform="translate(0,0) skewX(-5)" /><path d="M-1 5-1 1-3 1-3 5-9 5-9 3-5 3-5-1-1-1-1-5 5-5 5-1 9-1 9 1 3 1 3-3 1-3 1 3 5 3 5 5z" id="lAuIE" transform="translate(0,0) skewX(-5)" /><image height="20" id="twvOAX" transform="translate(-10,-10)" width="20" xlink:href="file:///K:/W/Binkeul-PW-2018/pinkeul/-prepare-script/UKODE-SAMPLE/EMOJI/emoji/skull.png" /><image height="20" id="twvKh" transform="translate(-10,-10)" width="20" xlink:href="file:///K:/W/Binkeul-PW-2018/pinkeul/-prepare-script/UKODE-SAMPLE/EMOJI/emoji/ideograph_advantage.png" /></defs><g fill="black" stroke="white" stroke-linejoin="round" stroke-width="0.3"><use x="10" xlink:href="#ZOIRVp" y="0" /><use x="27" xlink:href="#twvOaQ" y="0" /><use x="48" xlink:href="#vqSxID" y="0" /><use x="65" xlink:href="#twvFl" y="0" /><use x="86" xlink:href="#twvFM" y="0" /><use x="107" xlink:href="#twvKJ" y="0" /><use x="124" xlink:href="#zkGYdF" y="0" /><use x="137" xlink:href="#ODUXvN" y="0" /><use x="154" xlink:href="#XIAxDH" y="0" /><use x="171" xlink:href="#UFEwnm" y="0" /><use x="184" xlink:href="#twWPdz" y="0" /><use x="205" xlink:href="#twvOCG" y="0" /><use x="226" xlink:href="#twvlJ" y="0" /><use x="247" xlink:href="#twvGO" y="0" /><use x="268" xlink:href="#twvEL" y="0" /><use x="289" xlink:href="#twvnA" y="0" /><use x="10" xlink:href="#twvOaZ" y="21" /><use x="31" xlink:href="#twvif" y="21" /><use x="48" xlink:href="#UjGvFl" y="21" /><use x="65" xlink:href="#twvHe" y="21" /><use x="86" xlink:href="#twvli" y="21" /><use x="107" xlink:href="#ycGVJl" y="21" /><use x="124" xlink:href="#yCQPdz" y="21" /><use x="145" xlink:href="#twvNJ" y="21" /><use x="162" xlink:href="#vSQXEi" y="21" /><use x="183" xlink:href="#twvjH" y="21" /><use x="204" xlink:href="#twvgB" y="21" /><use x="221" xlink:href="#UMQVfb" y="21" /><use x="238" xlink:href="#ssSOvc" y="21" /><use x="259" xlink:href="#twvin" y="21" /><use x="280" xlink:href="#twvLa" y="21" /><use x="10" xlink:href="#ZOYxet" y="42" /><use x="27" xlink:href="#SWIyzu" y="42" /><use x="48" xlink:href="#twvOaN" y="42" /><use x="65" xlink:href="#VxSPBw" y="42" /><use x="86" xlink:href="#twvFB" y="42" /><use x="107" xlink:href="#twveP" y="42" /><use x="128" xlink:href="#twved" y="42" /><use x="149" xlink:href="#twvFj" y="42" /><use x="170" xlink:href="#twvLh" y="42" /><use x="187" xlink:href="#seCPdv" y="42" /><use x="208" xlink:href="#twvMA" y="42" /><use x="229" xlink:href="#twvih" y="42" /><use x="250" xlink:href="#twvgg" y="42" /><use x="271" xlink:href="#WCEVaf" y="42" /><use x="288" xlink:href="#twvGi" y="42" /><use x="6" xlink:href="#ytSOHT" y="63" /><use x="27" xlink:href="#PuGViZ" y="63" /><use x="48" xlink:href="#twvFa" y="63" /><use x="69" xlink:href="#vCAuGo" y="63" /><use x="90" xlink:href="#TwCOsy" y="63" /><use x="111" xlink:href="#twvma" y="63" /><use x="132" xlink:href="#twvOCi" y="63" /><use x="153" xlink:href="#twvha" y="63" /><use x="174" xlink:href="#twvmG" y="63" /><use x="195" xlink:href="#lAuIE" y="63" /><use x="216" xlink:href="#WpKocB" y="63" /><use x="233" xlink:href="#twvEm" y="63" /><use x="254" xlink:href="#twvil" y="63" /><use x="271" xlink:href="#OEQYnB" y="63" /><use x="10" xlink:href="#twvKh" y="84" /><use x="31" xlink:href="#twvmB" y="84" /><use x="52" xlink:href="#twveJ" y="84" /><use x="73" xlink:href="#WrSWHc" y="84" /><use x="90" xlink:href="#twvIm" y="84" /><use x="111" xlink:href="#twvOAK" y="84" /><use x="132" xlink:href="#twvna" y="84" /><use x="153" xlink:href="#twvOBL" y="84" /><use x="174" xlink:href="#QPEoHQ" y="84" /><use x="187" xlink:href="#wzCpCL" y="84" /><use x="204" xlink:href="#twvOAX" y="84" /><use x="225" xlink:href="#ycGVgK" y="84" /><use x="238" xlink:href="#WMAOBx" y="84" /><use x="247" xlink:href="#EAuBD" y="84" /><use x="264" xlink:href="#twvMb" y="84" /><use x="281" xlink:href="#WTUOii" y="84" /><use x="10" xlink:href="#twvNK" y="105" /><use x="27" xlink:href="#ppSvZt" y="105" /><use x="48" xlink:href="#yiCUwZ" y="105" /><use x="65" xlink:href="#twvFI" y="105" /><use x="82" xlink:href="#ULEvxB" y="105" /><use x="103" xlink:href="#twvkA" y="105" /><use x="124" xlink:href="#yeOoHq" y="105" /><use x="141" xlink:href="#twvnE" y="105" /><use x="158" xlink:href="#vkKqrM" y="105" /><use x="175" xlink:href="#twvkH" y="105" /><use x="196" xlink:href="#twvHj" y="105" /><use x="217" xlink:href="#twvObH" y="105" /><use x="238" xlink:href="#twvlK" y="105" /><use x="255" xlink:href="#ybOUyq" y="105" /><use x="272" xlink:href="#twvEJ" y="105" /><use x="293" xlink:href="#WnSVsR" y="105" /><use x="6" xlink:href="#wOEVvm" y="126" /><use x="27" xlink:href="#twvke" y="126" /><use x="48" xlink:href="#WOEvsi" y="126" /><use x="65" xlink:href="#TkWoAU" y="126" /><use x="86" xlink:href="#twvObq" y="126" /><use x="107" xlink:href="#twvOBY" y="126" /><use x="128" xlink:href="#twvmj" y="126" /><use x="149" xlink:href="#twvIb" y="126" /></g></svg>