<svg baseProfile="full" height="1068" version="1.1" viewBox="-3 -21 504 534" width="1008" xmlns="http://www.w3.org/2000/svg" xmlns:ev="http://www.w3.org/2001/xml-events" xmlns:xlink="http://www.w3.org/1999/xlink"><defs /><defs><path d="M 9 3 9 5 3 5 3-3 1-3 1 1-1 1-1-5 5-5 5 3z" id="twWoAq" transform="translate(0,0) skewX(-5)" /><path d="M-9-9-7-9-7-7-9-7zM-1 5-1 1-5 1-5-1-1-1-1-5 1-5 1-1 5-1 5 1 1 1 1 5zM 9-7 7-7 7-9 9-9zM 9-3 3-3 3-9 5-9 5-5 9-5zM-3-3-9-3-9-5-5-5-5-9-3-9z" id="PuGViZ" transform="translate(0,0) skewX(-5)" /><path d="M 9 7 9 9-5 9-5 7-1 7-1-3-5-3-5-5 9-5 9-3 1-3 1-1 5-1 5 5 1 5 1 7zM 3 3 3 1 1 1 1 3z" id="SWIUTL" transform="translate(0,0) skewX(-5)" /><image height="40" id="twvOCI" transform="translate(-20,-20)" width="40" xlink:href="file:///K:/W/Binkeul-PW-2018/pinkeul/-prepare-script/UKODE-SAMPLE/EMOJI/emoji/yum.png" /><image height="40" id="twvlI" transform="translate(-20,-20)" width="40" xlink:href="file:///K:/W/Binkeul-PW-2018/pinkeul/-prepare-script/UKODE-SAMPLE/EMOJI/emoji/mount_fuji.png" /><path d="M 0-7-3-4-3 1-5 1-5-5-4-5-1-8-1-9 1-9 1-8 4-5 5-5 5 1 1 1 1 5-1 5-1-5 1-5 1-1 3-1 3-4z" id="weSVsr" transform="translate(0,0) skewX(-5)" /><image height="40" id="twveE" transform="translate(-20,-20)" width="40" xlink:href="file:///K:/W/Binkeul-PW-2018/pinkeul/-prepare-script/UKODE-SAMPLE/EMOJI/emoji/arrow_heading_up.png" /><image height="40" id="twvFA" transform="translate(-20,-20)" width="40" xlink:href="file:///K:/W/Binkeul-PW-2018/pinkeul/-prepare-script/UKODE-SAMPLE/EMOJI/emoji/bamboo.png" /><image height="40" id="twvOBU" transform="translate(-20,-20)" width="40" xlink:href="file:///K:/W/Binkeul-PW-2018/pinkeul/-prepare-script/UKODE-SAMPLE/EMOJI/emoji/trolleybus.png" /><image height="40" id="twvOAI" transform="translate(-20,-20)" width="40" xlink:href="file:///K:/W/Binkeul-PW-2018/pinkeul/-prepare-script/UKODE-SAMPLE/EMOJI/emoji/sagittarius.png" /><image height="40" id="twvlM" transform="translate(-20,-20)" width="40" xlink:href="file:///K:/W/Binkeul-PW-2018/pinkeul/-prepare-script/UKODE-SAMPLE/EMOJI/emoji/musical_note.png" /><image height="40" id="twvGA" transform="translate(-20,-20)" width="40" xlink:href="file:///K:/W/Binkeul-PW-2018/pinkeul/-prepare-script/UKODE-SAMPLE/EMOJI/emoji/bust_in_silhouette.png" /><path d="M 8-1 9-1 9 1 7 1 7 0 5-2 5 5 3 5 3 1-1 1-1-3-5-3-5-5 1-5 1-1 3-1 3-7-1-7-1-9 9-9 9-7 5-7 5-4zM-1 5-1 4-4 1-5 1-5-1-3-1-3 0 0 3 1 3 1 5z" id="SWQSrm" transform="translate(0,0) skewX(-5)" /><path d="M 0-7-3-4-3 0 0 3 1 3 1 5-1 5-1 4-4 1-5 1-5-5-4-5-1-8-1-9 1-9 1-7zM-1-5 5-5 5 1-1 1zM 3-3 1-3 1-1 3-1z" id="weWVVo" transform="translate(0,0) skewX(-5)" /><image height="40" id="twvOaq" transform="translate(-20,-20)" width="40" xlink:href="file:///K:/W/Binkeul-PW-2018/pinkeul/-prepare-script/UKODE-SAMPLE/EMOJI/emoji/stars.png" /><path d="M 1-4 4-1 5-1 5 1 4 1 1 4 1 9-5 9-5 7-1 7-1 4-4 1-5 1-5-1-4-1-1-4-1-5 1-5zM 3 0 0-3-3 0-1 2-1-1 1-1 1 2zM-7 7-7 9-9 9-9 7zM-7 5-9 5-9 3-7 3zM 3-9 5-9 5-7 3-7zM-1-9 1-9 1-7-1-7z" id="vhKWmH" transform="translate(0,0) skewX(-5)" /><image height="40" id="twvhM" transform="translate(-20,-20)" width="40" xlink:href="file:///K:/W/Binkeul-PW-2018/pinkeul/-prepare-script/UKODE-SAMPLE/EMOJI/emoji/dolls.png" /><image height="40" id="twvNm" transform="translate(-20,-20)" width="40" xlink:href="file:///K:/W/Binkeul-PW-2018/pinkeul/-prepare-script/UKODE-SAMPLE/EMOJI/emoji/poultry_leg.png" /><path d="M-9 5-9 3-4 3-1 0-1-5 1-5 1-1 5-1 5 1 0 1-2 3 5 3 5 5zM 9-3 7-3 7-7 3-7 3-9 9-9zM 7 1 7-1 9-1 9 1zM 5-3 3-3 3-5 5-5zM-1-9 1-9 1-7-1-7z" id="xtWVJj" transform="translate(0,0) skewX(-5)" /><path d="M 1-4 4-1 5-1 5 1 3 1 3 0 0-3-1-3-1-5 1-5zM 8-1 9-1 9 1 7 1 7 0 4-3 3-3 3-5 5-5 5-4zM-5 5-5-1-3-1-3 3 5 3 5 5zM-3-4 0-1 1-1 1 1-1 1-1 0-4-3-5-3-5-5-3-5z" id="pxCyYG" transform="translate(0,0) skewX(-5)" /><path d="M 8 3 9 3 9 5 7 5 7 4 4 1 3 1 3-1 4-1 7-4 7-6 5-4 5-3 3-3 3-5 4-5 7-8 7-9 9-9 9-3 8-3 5 0zM-4 3-3 3-3 5-5 5-5 4-8 1-9 1-9-5-7-5-7-4-4-1-3-1-3 1-5 1-5 0-7-2-7 0zM-1 5-1-9 5-9 5-7 1-7 1 3 5 3 5 5zM-9 3-7 3-7 4-4 7-3 7-3 9-5 9-5 8-7 6-7 9-9 9z" id="SrGvrf" transform="translate(0,0) skewX(-5)" /><image height="40" id="twvOAt" transform="translate(-20,-20)" width="40" xlink:href="file:///K:/W/Binkeul-PW-2018/pinkeul/-prepare-script/UKODE-SAMPLE/EMOJI/emoji/tshirt.png" /><path d="M 1 0 1 3 4 3 7 0 7-3 4-3zM-5 7-4 7-1 4-1-1 0-1 3-4 3-5 9-5 9 1 8 1 5 4 5 5 0 5-3 8-3 9-5 9zM-9-1-8-1-5-4-5-5-3-5-3-3-4-3-7 0-7 5-9 5zM-5-1-4-1-1-4-1-5 1-5 1-3 0-3-3 0-3 5-5 5zM 5-1 5 1 3 1 3-1z" id="ZHEyyb" transform="translate(0,0) skewX(-5)" /><path d="M-1-5 1-5 1 1 0 1-3 4 0 7 1 7 1 9-1 9-1 8-4 5-5 5-5 3-4 3-1 0zM 9 1 8 1 5 4 8 7 9 7 9 9 7 9 7 8 4 5 3 5 3 3 4 3 7 0 7-5 9-5zM-3 1-5 1-5-5-3-5zM 5-3 3-3 3-5 5-5zM 5-1 5 1 3 1 3-1z" id="zJYtXe" transform="translate(0,0) skewX(-5)" /><path d="M-3-3-3-1-1-1-1-3zM-5 6-7 8-7 9-9 9-9 7-8 7-5 4-5 1-9 1-9-5-7-5-7-1-5-1-5-5-1-5-1-7-5-7-5-9 5-9 5-7 1-7 1-5 5-5 5-3 1-3 1 0 4 3 5 3 5 5 3 5 3 4 0 1-3 1-3 4 0 7 1 7 1 9-1 9-1 8-3 6-3 9-5 9z" id="XEARwj" transform="translate(0,0) skewX(-5)" /><image height="40" id="twvJi" transform="translate(-20,-20)" width="40" xlink:href="file:///K:/W/Binkeul-PW-2018/pinkeul/-prepare-script/UKODE-SAMPLE/EMOJI/emoji/goberserk.png" /><image height="40" id="twvGe" transform="translate(-20,-20)" width="40" xlink:href="file:///K:/W/Binkeul-PW-2018/pinkeul/-prepare-script/UKODE-SAMPLE/EMOJI/emoji/capital_abcd.png" /><image height="40" id="twvNi" transform="translate(-20,-20)" width="40" xlink:href="file:///K:/W/Binkeul-PW-2018/pinkeul/-prepare-script/UKODE-SAMPLE/EMOJI/emoji/point_up_2.png" /><image height="40" id="twvOag" transform="translate(-20,-20)" width="40" xlink:href="file:///K:/W/Binkeul-PW-2018/pinkeul/-prepare-script/UKODE-SAMPLE/EMOJI/emoji/snowflake.png" /><image height="40" id="twvGm" transform="translate(-20,-20)" width="40" xlink:href="file:///K:/W/Binkeul-PW-2018/pinkeul/-prepare-script/UKODE-SAMPLE/EMOJI/emoji/children_crossing.png" /><image height="40" id="twvFe" transform="translate(-20,-20)" width="40" xlink:href="file:///K:/W/Binkeul-PW-2018/pinkeul/-prepare-script/UKODE-SAMPLE/EMOJI/emoji/bathtub.png" /><image height="40" id="twvNa" transform="translate(-20,-20)" width="40" xlink:href="file:///K:/W/Binkeul-PW-2018/pinkeul/-prepare-script/UKODE-SAMPLE/EMOJI/emoji/persevere.png" /><image height="40" id="twvKe" transform="translate(-20,-20)" width="40" xlink:href="file:///K:/W/Binkeul-PW-2018/pinkeul/-prepare-script/UKODE-SAMPLE/EMOJI/emoji/house_with_garden.png" /><image height="40" id="twvKa" transform="translate(-20,-20)" width="40" xlink:href="file:///K:/W/Binkeul-PW-2018/pinkeul/-prepare-script/UKODE-SAMPLE/EMOJI/emoji/horse.png" /><image height="40" id="twvJe" transform="translate(-20,-20)" width="40" xlink:href="file:///K:/W/Binkeul-PW-2018/pinkeul/-prepare-script/UKODE-SAMPLE/EMOJI/emoji/gem.png" /><path d="M 8 3 9 3 9 5 7 5 7 4 5 2 5 4 8 7 9 7 9 9 7 9 7 8 4 5 3 5 3 4 1 2 1 5-1 5-1 4-4 1-5 1-5-1-4-1-1-4-1-5 1-5 1-3 0-3-3 0-1 2-1-1 1-1 1 0 3 2 3-1 5-1 5 0zM-3-3-5-3-5-5-3-5z" id="VYYXTP" transform="translate(0,0) skewX(-5)" /><path d="M 0 5-1 5-1 3 0 3 3 0 3-3-3-3-3 1-4 1-7 4-4 7-3 7-3 9-5 9-5 8-8 5-9 5-9 3-8 3-5 0-5-5 5-5 5 1 4 1 1 4 4 7 5 7 5 9 3 9 3 8zM-1 1-1-1 1-1 1 1z" id="ZNUUpC" transform="translate(0,0) skewX(-5)" /><path d="M-1 5-1-3-3-3-3 5-5 5-5-5 5-5 5-3 2-3 4-1 7-1 7-5 9-5 9 1 5 1 5 5 3 5 3 0 1-2 1 5z" id="WPUvZP" transform="translate(0,0) skewX(-5)" /><image height="40" id="twvMM" transform="translate(-20,-20)" width="40" xlink:href="file:///K:/W/Binkeul-PW-2018/pinkeul/-prepare-script/UKODE-SAMPLE/EMOJI/emoji/ocean.png" /><image height="40" id="twvfm" transform="translate(-20,-20)" width="40" xlink:href="file:///K:/W/Binkeul-PW-2018/pinkeul/-prepare-script/UKODE-SAMPLE/EMOJI/emoji/bug.png" /><path d="M 2-1 9-1 9 1 1 1 1 5-3 5-3 9-5 9-5 1-9 1-9-1 0-1 3-4 3-6 1-4 1-3-9-3-9-5-8-5-5-8-5-9 5-9 5-3 4-3zM 9 3 9 5 7 5 7 3zM-3-5-1-5-1-7-3-7zM 3 3 5 3 5 5 3 5zM-3 1-3 3-1 3-1 1zM-5-5-5-6-6-5zM 1-6 2-7 1-7z" id="roGSCy" transform="translate(0,0) skewX(-5)" /><path d="M 2-1 9-1 9 1 1 1 1 5-1 5-1 1-9 1-9-1-2-1-4-3-5-3-5-5-3-5-3-4 0-1 3-4 3-5 5-5 5-3 4-3zM-1 7 1 7 1 9-1 9z" id="vSQxqo" transform="translate(0,0) skewX(-5)" /><path d="M 0 1-5 1-5-1-2-1-4-3-5-3-5-5-3-5-3-4-1-2-1-5 1-5 1 0 4 3 5 3 5 4 8 7 9 7 9 9 7 9 7 8 4 5 3 5 3 4z" id="vSQXEi" transform="translate(0,0) skewX(-5)" /><path d="M-1 5-1 1-5 1-5-5 5-5 5 1 3 1 3-3-3-3-3-1 1-1 1 3 5 3 5 5zM-3 3-3 9-9 9-9 3zM-7 5-7 7-5 7-5 5z" id="ZQAoFM" transform="translate(0,0) skewX(-5)" /><path d="M 1 0 4 3 5 3 5 5 3 5 3 4 0 1-1 1-1-5 1-5 1-2 3-4 3-5 5-5 5-3 4-3zM 0-7-3-4-3 0 0 3 1 3 1 5-1 5-1 4-4 1-5 1-5-9-3-9-3-6-1-8-1-9 1-9 1-7z" id="wfSXEk" transform="translate(0,0) skewX(-5)" /><path d="M 3-2 1 0 1 3 3 3zM-1 5-1 2-3 4-3 5-5 5-5-5 5-5 5 3 7 3 7-1 9-1 9 5zM-3-3-3 2-1 0-1-1 0-1 2-3z" id="TnWRzB" transform="translate(0,0) skewX(-5)" /><path d="M 1-4 4-1 7-4 7-5 9-5 9-3 8-3 6-1 9-1 9 1 6 1 8 3 9 3 9 5 7 5 7 4 5 2 5 5 3 5 3 1 0 1-3 4 0 7 1 7 1 9-1 9-1 8-4 5-5 5-5 3-4 3-1 0-1-2-3 0-3 1-5 1-5-1-4-1-1-4-1-5 1-5zM 1-2 1-1 2-1z" id="UAExRM" transform="translate(0,0) skewX(-5)" /><path d="M-1 5-1-3-5-3-5-9 1-9 1-1 5-1 5 1 1 1 1 3 9 3 9 5zM-3-5-1-5-1-7-3-7z" id="yAYPGh" transform="translate(0,0) skewX(-5)" /><image height="40" id="twvFJ" transform="translate(-20,-20)" width="40" xlink:href="file:///K:/W/Binkeul-PW-2018/pinkeul/-prepare-script/UKODE-SAMPLE/EMOJI/emoji/bento.png" /><image height="40" id="twviF" transform="translate(-20,-20)" width="40" xlink:href="file:///K:/W/Binkeul-PW-2018/pinkeul/-prepare-script/UKODE-SAMPLE/EMOJI/emoji/fire_engine.png" /><image height="40" id="twvGB" transform="translate(-20,-20)" width="40" xlink:href="file:///K:/W/Binkeul-PW-2018/pinkeul/-prepare-script/UKODE-SAMPLE/EMOJI/emoji/cake.png" /><image height="40" id="twvObT" transform="translate(-20,-20)" width="40" xlink:href="file:///K:/W/Binkeul-PW-2018/pinkeul/-prepare-script/UKODE-SAMPLE/EMOJI/emoji/wavy_dash.png" /><image height="40" id="twvKF" transform="translate(-20,-20)" width="40" xlink:href="file:///K:/W/Binkeul-PW-2018/pinkeul/-prepare-script/UKODE-SAMPLE/EMOJI/emoji/hurtrealbad.png" /><image height="40" id="twveB" transform="translate(-20,-20)" width="40" xlink:href="file:///K:/W/Binkeul-PW-2018/pinkeul/-prepare-script/UKODE-SAMPLE/EMOJI/emoji/arrow_double_down.png" /><image height="40" id="twvLN" transform="translate(-20,-20)" width="40" xlink:href="file:///K:/W/Binkeul-PW-2018/pinkeul/-prepare-script/UKODE-SAMPLE/EMOJI/emoji/mega.png" /><image height="40" id="twvObX" transform="translate(-20,-20)" width="40" xlink:href="file:///K:/W/Binkeul-PW-2018/pinkeul/-prepare-script/UKODE-SAMPLE/EMOJI/emoji/wheelchair.png" /><image height="40" id="twvGF" transform="translate(-20,-20)" width="40" xlink:href="file:///K:/W/Binkeul-PW-2018/pinkeul/-prepare-script/UKODE-SAMPLE/EMOJI/emoji/capricorn.png" /><image height="40" id="twvjJ" transform="translate(-20,-20)" width="40" xlink:href="file:///K:/W/Binkeul-PW-2018/pinkeul/-prepare-script/UKODE-SAMPLE/EMOJI/emoji/hear_no_evil.png" /><path d="M 0-7-2-5 0-5 3-8 3-9 5-9 5-7 4-7 1-4 1 1-1 1-1-3-3-3-3 3 3 3 3-1 9-1 9 5 7 5 7 1 5 1 5 9-1 9-1 5-5 5-5-3-7-3-7 1-9 1-9-5-4-5-1-8-1-9 1-9 1-7zM-5 7-3 7-3 9-5 9zM 9-7 8-7 5-4 5-3 3-3 3-5 4-5 7-8 7-9 9-9zM 1 5 1 7 3 7 3 5zM-7 7-7 9-9 9-9 7z" id="TkWoAU" transform="translate(0,0) skewX(-5)" /><image height="40" id="twvKm" transform="translate(-20,-20)" width="40" xlink:href="file:///K:/W/Binkeul-PW-2018/pinkeul/-prepare-script/UKODE-SAMPLE/EMOJI/emoji/izakaya_lantern.png" /><image height="40" id="twvOba" transform="translate(-20,-20)" width="40" xlink:href="file:///K:/W/Binkeul-PW-2018/pinkeul/-prepare-script/UKODE-SAMPLE/EMOJI/emoji/two_men_holding_hands.png" /><path d="M-5 5-5 3-4 3-2 1-5 1-5-1-4-1-2-3-5-3-5-9-3-9-3-5 1-5 1-3 0-3-2-1 9-1 9 1 8 1 5 4 5 5zM 3 3 3 1 1 1 1 3zM 6 1 5 1 5 2zM-1 2-2 3-1 3z" id="THIVef" transform="translate(0,0) skewX(-5)" /><image height="40" id="twvfb" transform="translate(-20,-20)" width="40" xlink:href="file:///K:/W/Binkeul-PW-2018/pinkeul/-prepare-script/UKODE-SAMPLE/EMOJI/emoji/blue_car.png" /><image height="40" id="twvOAu" transform="translate(-20,-20)" width="40" xlink:href="file:///K:/W/Binkeul-PW-2018/pinkeul/-prepare-script/UKODE-SAMPLE/EMOJI/emoji/shower.png" /><image height="40" id="twvff" transform="translate(-20,-20)" width="40" xlink:href="file:///K:/W/Binkeul-PW-2018/pinkeul/-prepare-script/UKODE-SAMPLE/EMOJI/emoji/bookmark_tabs.png" /><path d="M-1 5-1 1-5 1-5-9 1-9 1-7-2-7 0-5 9-5 9 5 7 5 7-3 2-3 4-1 5-1 5 5 3 5 3 0 0-3-2-1 1-1 1 5zM-1-4-3-6-3-2z" id="ZOYvrv" transform="translate(0,0) skewX(-5)" /><path d="M 3-2 1 0 1 1-1 1-1-1 0-1 3-4 3-5 5-5 5 1 4 1 1 4 4 7 5 7 5 9 3 9 3 8 0 5-3 8-3 9-5 9-5 8-8 5-9 5-9 3-7 3-7 4-5 6-5-3-9-3-9-5 1-5 1-3-3-3-3 6-1 4-1 3 0 3 3 0z" id="ZOYyPU" transform="translate(0,0) skewX(-5)" /><image height="40" id="twvOBd" transform="translate(-20,-20)" width="40" xlink:href="file:///K:/W/Binkeul-PW-2018/pinkeul/-prepare-script/UKODE-SAMPLE/EMOJI/emoji/syringe.png" /><image height="40" id="twvObl" transform="translate(-20,-20)" width="40" xlink:href="file:///K:/W/Binkeul-PW-2018/pinkeul/-prepare-script/UKODE-SAMPLE/EMOJI/emoji/vibration_mode.png" /><image height="40" id="twvjb" transform="translate(-20,-20)" width="40" xlink:href="file:///K:/W/Binkeul-PW-2018/pinkeul/-prepare-script/UKODE-SAMPLE/EMOJI/emoji/hamster.png" /><image height="40" id="twvjn" transform="translate(-20,-20)" width="40" xlink:href="file:///K:/W/Binkeul-PW-2018/pinkeul/-prepare-script/UKODE-SAMPLE/EMOJI/emoji/herb.png" /><image height="40" id="twvOad" transform="translate(-20,-20)" width="40" xlink:href="file:///K:/W/Binkeul-PW-2018/pinkeul/-prepare-script/UKODE-SAMPLE/EMOJI/emoji/smirk.png" /><image height="40" id="twvHf" transform="translate(-20,-20)" width="40" xlink:href="file:///K:/W/Binkeul-PW-2018/pinkeul/-prepare-script/UKODE-SAMPLE/EMOJI/emoji/construction.png" /><image height="40" id="twvjj" transform="translate(-20,-20)" width="40" xlink:href="file:///K:/W/Binkeul-PW-2018/pinkeul/-prepare-script/UKODE-SAMPLE/EMOJI/emoji/heavy_check_mark.png" /><image height="40" id="twvin" transform="translate(-20,-20)" width="40" xlink:href="file:///K:/W/Binkeul-PW-2018/pinkeul/-prepare-script/UKODE-SAMPLE/EMOJI/emoji/four.png" /><image height="40" id="twvNn" transform="translate(-20,-20)" width="40" xlink:href="file:///K:/W/Binkeul-PW-2018/pinkeul/-prepare-script/UKODE-SAMPLE/EMOJI/emoji/pouting_cat.png" /><image height="40" id="twvhn" transform="translate(-20,-20)" width="40" xlink:href="file:///K:/W/Binkeul-PW-2018/pinkeul/-prepare-script/UKODE-SAMPLE/EMOJI/emoji/door.png" /><path d="M 2-1 5-1 5 1 1 1 1 3 5 3 5 5 4 5 1 8 1 9-1 9-1 7 0 7 2 5-1 5-1 1-3 1-3 5-5 5-5-3-9-3-9-5-2-5-4-7-5-7-5-9-3-9-3-8-1-6-1-9 1-9 1-6 3-8 3-9 5-9 5-7 4-7 1-4 1-2 3-4 3-5 5-5 5-3 4-3zM-3-3-3-1-1-1-1-3z" id="xxKrof" transform="translate(0,0) skewX(-5)" /><image height="40" id="twvnj" transform="translate(-20,-20)" width="40" xlink:href="file:///K:/W/Binkeul-PW-2018/pinkeul/-prepare-script/UKODE-SAMPLE/EMOJI/emoji/rat.png" /><image height="40" id="twvOAL" transform="translate(-20,-20)" width="40" xlink:href="file:///K:/W/Binkeul-PW-2018/pinkeul/-prepare-script/UKODE-SAMPLE/EMOJI/emoji/school.png" /><image height="40" id="twvmk" transform="translate(-20,-20)" width="40" xlink:href="file:///K:/W/Binkeul-PW-2018/pinkeul/-prepare-script/UKODE-SAMPLE/EMOJI/emoji/paperclip.png" /><image height="40" id="twvOac" transform="translate(-20,-20)" width="40" xlink:href="file:///K:/W/Binkeul-PW-2018/pinkeul/-prepare-script/UKODE-SAMPLE/EMOJI/emoji/smile_cat.png" /><image height="40" id="twvio" transform="translate(-20,-20)" width="40" xlink:href="file:///K:/W/Binkeul-PW-2018/pinkeul/-prepare-script/UKODE-SAMPLE/EMOJI/emoji/fr.png" /><path d="M-5 7-3 7-3 9-5 9zM 1 5 1 9-1 9-1 5-5 5-5 1-9 1-9-1-5-1-5-3-9-3-9-5-3-5-3-1 1-1 1 3 5 3 5 5zM-3 1-3 3-1 3-1 1zM 5-1 5 1 3 1 3-1z" id="QPEoHQ" transform="translate(0,0) skewX(-5)" /><path d="M-1 5-1 1-5 1-5-1-4-1-1-4-1-7-3-7-3-3-4-3-7 0-7 1-9 1-9-1-8-1-5-4-5-9 1-9 1-3 0-3-2-1 5-1 5 5zM 3 3 3 1 1 1 1 3z" id="vjKVFJ" transform="translate(0,0) skewX(-5)" /><image height="40" id="twvjA" transform="translate(-20,-20)" width="40" xlink:href="file:///K:/W/Binkeul-PW-2018/pinkeul/-prepare-script/UKODE-SAMPLE/EMOJI/emoji/haircut.png" /><image height="40" id="twvgD" transform="translate(-20,-20)" width="40" xlink:href="file:///K:/W/Binkeul-PW-2018/pinkeul/-prepare-script/UKODE-SAMPLE/EMOJI/emoji/clock10.png" /><path d="M 1-4 3-2 3-5 5-5 5 1 3 1 3 0 1-2 1 0 4 3 5 3 5 5 4 5 1 8 1 9-1 9-1 7 0 7 3 4 1 2 1 5 0 5-3 8-3 9-5 9-5 7-4 7-1 4-1-2-3 0-3 5-9 5-9-1-7-1-7 3-5 3-5-1-4-1-1-4-1-5 1-5z" id="ULEUlq" transform="translate(0,0) skewX(-5)" /><image height="40" id="twvmF" transform="translate(-20,-20)" width="40" xlink:href="file:///K:/W/Binkeul-PW-2018/pinkeul/-prepare-script/UKODE-SAMPLE/EMOJI/emoji/open_mouth.png" /><image height="40" id="twvGf" transform="translate(-20,-20)" width="40" xlink:href="file:///K:/W/Binkeul-PW-2018/pinkeul/-prepare-script/UKODE-SAMPLE/EMOJI/emoji/red_car.png" /><image height="40" id="twvlG" transform="translate(-20,-20)" width="40" xlink:href="file:///K:/W/Binkeul-PW-2018/pinkeul/-prepare-script/UKODE-SAMPLE/EMOJI/emoji/mortar_board.png" /><path d="M-1 5-1 1-9 1-9-1-5-1-5-3-9-3-9-5-5-5-5-9-3-9-3-5 9-5 9-3 5-3 5-1 9-1 9 5 7 5 7 1 5 1 5 5zM-3-3-3-1 3-1 3-3zM 3 3 3 1 1 1 1 3z" id="ZPEPLQ" transform="translate(0,0) skewX(-5)" /><path d="M-5 5-5 3-1 3-1 1-9 1-9-1-5-1-5-9-3-9-3-5 5-5 5-3 1-3 1 3 5 3 5 5zM-3-3-3-1-1-1-1-3z" id="ZUAUec" transform="translate(0,0) skewX(-5)" /><path d="M-5-3-5-5 5-5 5-3 1-3 1 6 3 4 3 3 5 3 5 5 4 5 1 8 1 9-1 9-1 8-4 5-5 5-5 3-3 3-3 4-1 6-1-3z" id="ybKYnn" transform="translate(0,0) skewX(-5)" /><path d="M-9 5-9 3 1 3 1 5zM-1-9 1-9 1-5 9-5 9-3 5-3 5 5 3 5 3 1-5 1-5-1-1-1zM 3-3 1-3 1-1 3-1z" id="OBMVvL" transform="translate(0,0) skewX(-5)" /><image height="40" id="twvgO" transform="translate(-20,-20)" width="40" xlink:href="file:///K:/W/Binkeul-PW-2018/pinkeul/-prepare-script/UKODE-SAMPLE/EMOJI/emoji/clock930.png" /><image height="40" id="twviC" transform="translate(-20,-20)" width="40" xlink:href="file:///K:/W/Binkeul-PW-2018/pinkeul/-prepare-script/UKODE-SAMPLE/EMOJI/emoji/feet.png" /><path d="M-4 3-3 3-3 4 0 7 1 7 1 9-1 9-1 8-4 5-5 5-5 4-8 1-9 1-9-1-7-1-7 0zM-1 5-1-1 3-1 3-3-5-3-5-5 5-5 5 1 1 1 1 3 5 3 5 5z" id="ybOYDR" transform="translate(0,0) skewX(-5)" /><image height="40" id="twvEK" transform="translate(-20,-20)" width="40" xlink:href="file:///K:/W/Binkeul-PW-2018/pinkeul/-prepare-script/UKODE-SAMPLE/EMOJI/emoji/alien.png" /><image height="40" id="twvfO" transform="translate(-20,-20)" width="40" xlink:href="file:///K:/W/Binkeul-PW-2018/pinkeul/-prepare-script/UKODE-SAMPLE/EMOJI/emoji/bullettrain_side.png" /><image height="40" id="twvlK" transform="translate(-20,-20)" width="40" xlink:href="file:///K:/W/Binkeul-PW-2018/pinkeul/-prepare-script/UKODE-SAMPLE/EMOJI/emoji/moyai.png" /><image height="40" id="twvEO" transform="translate(-20,-20)" width="40" xlink:href="file:///K:/W/Binkeul-PW-2018/pinkeul/-prepare-script/UKODE-SAMPLE/EMOJI/emoji/apple.png" /><image height="40" id="twvIO" transform="translate(-20,-20)" width="40" xlink:href="file:///K:/W/Binkeul-PW-2018/pinkeul/-prepare-script/UKODE-SAMPLE/EMOJI/emoji/punch.png" /><image height="40" id="twvLK" transform="translate(-20,-20)" width="40" xlink:href="file:///K:/W/Binkeul-PW-2018/pinkeul/-prepare-script/UKODE-SAMPLE/EMOJI/emoji/man_with_gua_pi_mao.png" /><path d="M 0-7-3-4-3-3-5-3-5-5-4-5-1-8-1-9 1-9 1-7zM-1 5-1 2-3 4-3 5-5 5-5 3-4 3-1 0-1-2-3 0-3 1-5 1-5-1-4-1-1-4-1-5 5-5 5-3 1-3 1-1 5-1 5 5zM 3 3 3 1 1 1 1 3z" id="WdOVlz" transform="translate(0,0) skewX(-5)" /><path d="M-5 5-5 3-4 3-1 0-1-1 1-1 1 1 0 1-2 3 0 3 3 0 3-1 5-1 5 1 4 1 1 4 1 5zM 7-3-1-3-1-5 9-5 9 9 7 9z" id="XfWUZo" transform="translate(0,0) skewX(-5)" /><path d="M 2-1 9-1 9 1 0 1-2 3 5 3 5 5-5 5-5 3-4 3-2 1-5 1-5-5-3-5-3-1 0-1 2-3-1-3-1-9 1-9 1-5 5-5 5-3 4-3z" id="QPYYNk" transform="translate(0,0) skewX(-5)" /><path d="M-5-3-5-5-1-5-1-9 1-9 1-5 5-5 5-3 1-3 1-1 5-1 5 5 3 5 3 1 0 1-1 2 0 3 1 3 1 4 4 7 5 7 5 9 3 9 3 8 0 5-3 8-3 9-5 9-5 7-4 7-1 4-2 3-3 4-3 5-5 5-5 3-4 3-3 2-4 1-5 1-5-1-1-1-1-3z" id="ybWWUc" transform="translate(0,0) skewX(-5)" /><path d="M-9-9-3-9-3-3-9-3zM-9 5-9 3-5 3-5-1-3-1-3 3-1 3-1-1 3-1 3-9 5-9 5 1 1 1 1 3 5 3 5 5zM-1-3-1-5 1-5 1-3zM-5-5-5-7-7-7-7-5z" id="tzKVTA" transform="translate(0,0) skewX(-5)" /><image height="40" id="twvFB" transform="translate(-20,-20)" width="40" xlink:href="file:///K:/W/Binkeul-PW-2018/pinkeul/-prepare-script/UKODE-SAMPLE/EMOJI/emoji/bangbang.png" /><image height="40" id="twvOAr" transform="translate(-20,-20)" width="40" xlink:href="file:///K:/W/Binkeul-PW-2018/pinkeul/-prepare-script/UKODE-SAMPLE/EMOJI/emoji/sheep.png" /><path d="M-1 5-1 4-4 1-5 1-5-3-9-3-9-5-5-5-5-9-3-9-3-8 0-5 1-5 1 2 3 0 3-1 5-1 5 5zM-3-3-3 0-1 2-1-3zM-3-5-2-5-3-6zM 2 3 3 3 3 2z" id="ZZUOPt" transform="translate(0,0) skewX(-5)" /><path d="M-5-3-5-5-2-5-4-7-5-7-5-9-3-9-3-8-1-6-1-9 1-9 1-6 3-8 3-9 5-9 5-7 4-7 2-5 5-5 5-3zM 3 9 3 8 0 5-3 8-3 9-5 9-5 7-4 7-2 5-5 5-5 3 5 3 5 5 2 5 4 7 5 7 5 9zM-1 1-1-1 1-1 1 1z" id="XQIWAG" transform="translate(0,0) skewX(-5)" /><path d="M 1 0 4 3 7 0 7-2 5 0 5 1 3 1 3-1 4-1 7-4 7-5 9-5 9 1 8 1 5 4 8 7 9 7 9 9 7 9 7 8 4 5 3 5 3 4 0 1-1 1-1-2-3 0-3 5-5 5-5-1-4-1-1-4-1-5 5-5 5-3 4-3zM 1-3 1-2 2-3z" id="xGQvug" transform="translate(0,0) skewX(-5)" /><image height="40" id="twvhe" transform="translate(-20,-20)" width="40" xlink:href="file:///K:/W/Binkeul-PW-2018/pinkeul/-prepare-script/UKODE-SAMPLE/EMOJI/emoji/dart.png" /><path d="M-9-9-7-9-7-8-4-5-3-5-3-4-2-3-1-4-1-5 1-5 1-4 2-3 3-4 3-5 5-5 5-3 4-3 3-2 4-1 7-4 7-5 9-5 9-3 8-3 5 0 8 3 9 3 9 5 7 5 7 4 4 1 3 2 4 3 5 3 5 4 8 7 9 7 9 9 7 9 7 8 4 5 3 5 3 4 2 3 1 4 1 5-1 5-1 4-2 3-3 4-3 5-5 5-5 3-4 3-3 2-4 1-7 4-7 5-9 5-9 3-8 3-5 0-8-3-9-3-9-5-7-5-7-4-4-1-3-2-4-3-5-3-5-4-8-7-9-7zM 3 0 2-1 1 0 2 1zM 0 3 1 2 0 1-1 2zM 0-3-1-2 0-1 1-2zM-2-1-3 0-2 1-1 0z" id="pRUUWQ" transform="translate(0,0) skewX(-5)" /><path d="M-9 5-9-1-7-1-7 3-1 3-1-1 1-1 1 3 5 3 5 5zM-3-3-3 1-5 1-5-5 9-5 9-3 5-3 5 1 3 1 3-3z" id="TrCuIc" transform="translate(0,0) skewX(-5)" /><path d="M-3 5-3 9-5 9-5 3-1 3-1-1 5-1 5 3 9 3 9 5 4 5 1 8 1 9-1 9-1 7 0 7 3 4 3 1 1 1 1 5zM-2-3-5-3-5-5 9-5 9-3 0-3-3 0-3 1-5 1-5-1-4-1zM 3 9 3 7 5 7 5 9zM 7 7 9 7 9 9 7 9zM 9-1 9 1 7 1 7-1z" id="yREVMt" transform="translate(0,0) skewX(-5)" /><image height="40" id="twvGk" transform="translate(-20,-20)" width="40" xlink:href="file:///K:/W/Binkeul-PW-2018/pinkeul/-prepare-script/UKODE-SAMPLE/EMOJI/emoji/cherries.png" /><image height="40" id="twvMo" transform="translate(-20,-20)" width="40" xlink:href="file:///K:/W/Binkeul-PW-2018/pinkeul/-prepare-script/UKODE-SAMPLE/EMOJI/emoji/ok.png" /><image height="40" id="twvkc" transform="translate(-20,-20)" width="40" xlink:href="file:///K:/W/Binkeul-PW-2018/pinkeul/-prepare-script/UKODE-SAMPLE/EMOJI/emoji/kimono.png" /><path d="M-5 7-4 7-1 4-1 3 0 3 2 1 0 1-3 4-3 5-5 5-5 3-4 3-1 0-1-2-3 0-3 1-5 1-5-1-4-1-1-4-1-5 5-5 5-3 1-3 1-1 5-1 5 1 4 1 2 3 9 3 9 5 0 5-3 8-3 9-5 9z" id="UjWqfa" transform="translate(0,0) skewX(-5)" /><path d="M-1 5-1 3 3 3 3-1 5-1 5 3 9 3 9 9 7 9 7 5 4 5 1 8 1 9-1 9-1 8-4 5-5 5-5 3-4 3-1 0-1-2-3 0-3 1-5 1-5-1-4-1-1-4-1-5 1-5 1 1 0 1-3 4 0 7 2 5z" id="UjWqZc" transform="translate(0,0) skewX(-5)" /><image height="40" id="twvJk" transform="translate(-20,-20)" width="40" xlink:href="file:///K:/W/Binkeul-PW-2018/pinkeul/-prepare-script/UKODE-SAMPLE/EMOJI/emoji/green_apple.png" /><image height="40" id="twvOBk" transform="translate(-20,-20)" width="40" xlink:href="file:///K:/W/Binkeul-PW-2018/pinkeul/-prepare-script/UKODE-SAMPLE/EMOJI/emoji/tiger.png" /><image height="40" id="twveo" transform="translate(-20,-20)" width="40" xlink:href="file:///K:/W/Binkeul-PW-2018/pinkeul/-prepare-script/UKODE-SAMPLE/EMOJI/emoji/baggage_claim.png" /><image height="40" id="twvjg" transform="translate(-20,-20)" width="40" xlink:href="file:///K:/W/Binkeul-PW-2018/pinkeul/-prepare-script/UKODE-SAMPLE/EMOJI/emoji/heartpulse.png" /><path d="M 8 3 9 3 9 5 7 5 7 4 4 1 1 1 1 5-3 5-3 9-5 9-5 3-1 3-1-4-4-7-5-7-5-9-3-9-3-8 0-5 3-8 3-9 5-9 5-7 4-7 1-4 1-1 4-1 7-4 7-5 9-5 9-3 8-3 5 0z" id="pcOqgr" transform="translate(0,0) skewX(-5)" /><path d="M 1 0 1 3 3 3 3-1 5-1 5 9-5 9-5 7-1 7-1 5-5 5-5 3-2 3-4 1-5 1-5-1-3-1-3 0-1 2-1 0-4-3-5-3-5-5-3-5-3-4-1-2-1-5 1-5 1-2 3-4 3-5 5-5 5-3 4-3zM 1 5 1 7 3 7 3 5z" id="vzCxHd" transform="translate(0,0) skewX(-5)" /><path d="M 7-2 7-5 9-5 9 5 7 5 7 4 4 1 3 1 3-1 5-1 5 0 7 2 7 0 4-3 3-3 3-5 5-5 5-4zM-5 5-5 3 5 3 5 5zM-9-1-7-1-7 2-5 0-5-1-3-1-3 1-4 1-7 4-7 5-9 5zM-1 1-1-1 1-1 1 1z" id="RNUXuQ" transform="translate(0,0) skewX(-5)" /><path d="M-1 5-1 3 1 3 1 5zM-3-3-3 1-4 1-7 4-7 5-9 5-9 3-8 3-5 0-5-5 5-5 5 1 0 1-3 4-3 5-5 5-5 3-4 3-1 0-1-3zM 3 3 5 3 5 5 3 5zM 3-3 1-3 1-1 3-1z" id="ZpWVVu" transform="translate(0,0) skewX(-5)" /><image height="40" id="twvkn" transform="translate(-20,-20)" width="40" xlink:href="file:///K:/W/Binkeul-PW-2018/pinkeul/-prepare-script/UKODE-SAMPLE/EMOJI/emoji/leo.png" /><path d="M-1 5-1 3 1 3 1 5zM-9-3-9-5 9-5 9-3zM-5 1-5-1 5-1 5 1z" id="SzCPIs" transform="translate(0,0) skewX(-5)" /><path d="M-9 5-9-1-5-1-5-5 5-5 5-3 1-3 1 5zM-3-3-3-1-1-1-1-3zM-7 3-1 3-1 1-7 1z" id="ZuWUEx" transform="translate(0,0) skewX(-5)" /><path d="M 8-1 9-1 9 1 7 1 7 0 4-3-4-3-7 0-7 1-9 1-9-1-8-1-5-4-5-5 5-5 5-4zM-1 5-1 1-5 1-5-1 1-1 1 3 5 3 5 5zM-5 5-5 3-3 3-3 5z" id="SzCXgL" transform="translate(0,0) skewX(-5)" /><path d="M-1 5-1 1-5 1-5-1-1-1-1-3-5-3-5-5 5-5 5-3 1-3 1-1 5-1 5 1 1 1 1 5zM 1 8 1 9-1 9-1 8-4 5-5 5-5 3-3 3-3 4 0 7 3 4 3 3 5 3 5 5 4 5z" id="ycGxUd" transform="translate(0,0) skewX(-5)" /><path d="M-4 3-2 1-5 1-5-1-4-1-1-4-1-5 1-5 1-1 5-1 5 1 0 1-2 3 4 3 7 0 7-1 9-1 9 1 8 1 5 4 5 5-5 5-5 4-8 1-9 1-9-1-7-1-7 0zM-1-1-1-2-2-1z" id="ofKVEm" transform="translate(0,0) skewX(-5)" /><path d="M 5 7 7 7 7 5 5 5zM-3-3-3-1-1-1-1-3zM 3 9 3 5 1 5 1 9-5 9-5 3-1 3-1 1-5 1-5-5 1-5 1-1 3-1 3-5 9-5 9 1 5 1 5 3 9 3 9 9zM-3 5-3 7-1 7-1 5zM 3 3 3 1 1 1 1 3zM 7-3 5-3 5-1 7-1z" id="WTUVlb" transform="translate(0,0) skewX(-5)" /><path d="M-5 5-5 3 3 3 3-1 5-1 5 5zM-5-3-5-5 5-5 5-3zM-5 1-5-1 1-1 1 1z" id="yhCUyE" transform="translate(0,0) skewX(-5)" /><path d="M-3 5-3 9-5 9-5 3-1 3-1 1-7 1-7 5-9 5-9-1-1-1-1-5 1-5 1-1 9-1 9 5 7 5 7 1 1 1 1 3 5 3 5 9 3 9 3 5zM 7 7 9 7 9 9 7 9zM-7 7-7 9-9 9-9 7zM-1 7 1 7 1 9-1 9z" id="OCIOQK" transform="translate(0,0) skewX(-5)" /><image height="40" id="twvfB" transform="translate(-20,-20)" width="40" xlink:href="file:///K:/W/Binkeul-PW-2018/pinkeul/-prepare-script/UKODE-SAMPLE/EMOJI/emoji/blue_book.png" /><path d="M-5-3-5-5 5-5 5-3 1-3 1-1 5-1 5 1 4 1 1 4 1 9-1 9-1 6-3 8-3 9-5 9-5 7-4 7-1 4-1 2-3 4-3 5-4 5-7 8-7 9-9 9-9 7-8 7-5 4-5 3-4 3-2 1-5 1-5-1-1-1-1-3zM 2 1 1 1 1 2z" id="ycKvgz" transform="translate(0,0) skewX(-5)" /><path d="M 1 0 1 1 0 1-2 3 5 3 5 5-5 5-5 3-4 3-1 0-1-9 1-9 1-2 3-4 3-5 5-5 5-3 4-3z" id="UFQXdi" transform="translate(0,0) skewX(-5)" /><path d="M-1 5-1 3 0 3 3 0 3-3 1-3 1 1 0 1-3 4-3 5-5 5-5 3-4 3-2 1-9 1-9-1-1-1-1-5 5-5 5 1 4 1 1 4 1 5z" id="UAUuJf" transform="translate(0,0) skewX(-5)" /><path d="M 3-2 2-1 3-1zM 0 5-1 5-1 3 0 3 2 1 0 1-3 4 0 7 1 7 1 9-1 9-1 8-4 5-5 5-5 3-4 3-2 1-5 1-5-1-4-1-1-4-1-5 1-5 1-2 3-4 3-5 5-5 5 1 4 1 1 4 4 7 5 7 5 9 3 9 3 8zM-2-1-1-1-1-2z" id="UKMVsq" transform="translate(0,0) skewX(-5)" /><path d="M 9 7 9 9-1 9-1 7 0 7 2 5-5 5-5 3-4 3-2 1-5 1-5-5-3-5-3-1 1-1 1 1 0 1-2 3 5 3 5 5 4 5 2 7z" id="QQUUcM" transform="translate(0,0) skewX(-5)" /><path d="M-1 5-1 3 0 3 3 0 3-3 1-3 1 1 0 1-3 4-3 5-5 5-5 3-4 3-1 0-1-9 9-9 9 1 8 1 5 4 5 5 3 5 3 3 4 3 7 0 7-3 5-3 5 1 4 1 1 4 1 5zM 5-7 5-5 7-5 7-7zM 1-5 3-5 3-7 1-7z" id="UUEoGK" transform="translate(0,0) skewX(-5)" /><image height="40" id="twvMa" transform="translate(-20,-20)" width="40" xlink:href="file:///K:/W/Binkeul-PW-2018/pinkeul/-prepare-script/UKODE-SAMPLE/EMOJI/emoji/new.png" /><path d="M-5-3-5-5-1-5-1-9 1-9 1-5 5-5 5-3 1-3 1 0 4 3 5 3 5 5 3 5 3 4 0 1-3 4-3 5-5 5-5 3-4 3-1 0-1-3zM 3 9 3 8 0 5-3 8-3 9-5 9-5 7-4 7-1 4-1 3 1 3 1 4 4 7 5 7 5 9z" id="ycKWai" transform="translate(0,0) skewX(-5)" /><path d="M-1 5-1 4-4 1-5 1-5-1-2-1-4-3-5-3-5-5 5-5 5 9 3 9 3-3-2-3 0-1 1-1 1 1-2 1 0 3 1 3 1 5zM-5 5-5 3-3 3-3 5z" id="yWYVCC" transform="translate(0,0) skewX(-5)" /><path d="M-1 5-1 2-3 4-3 5-5 5-5 3-4 3-2 1-4 1-7 4-7 5-9 5-9 3-8 3-6 1-9 1-9-1-1-1-1-5 1-5 1-1 5-1 5 1 1 1 1 5z" id="UaCVEc" transform="translate(0,0) skewX(-5)" /><image height="40" id="twviG" transform="translate(-20,-20)" width="40" xlink:href="file:///K:/W/Binkeul-PW-2018/pinkeul/-prepare-script/UKODE-SAMPLE/EMOJI/emoji/first_quarter_moon_with_face.png" /><path d="M-3-3-3-1-1-1-1-3zM 3 9 3 7 5 7 5 9zM-5 7-3 7-3 9-5 9zM-7 3-5 3-5-5-1-5-1-9 1-9 1-5 5-5 5 3 7 3 7 5 1 5 1 3 3 3 3 1-3 1-3 3-1 3-1 5-7 5zM 3-3 1-3 1-1 3-1z" id="ZVMoyt" transform="translate(0,0) skewX(-5)" /><image height="40" id="twvjL" transform="translate(-20,-20)" width="40" xlink:href="file:///K:/W/Binkeul-PW-2018/pinkeul/-prepare-script/UKODE-SAMPLE/EMOJI/emoji/heavy_exclamation_mark.png" /><image height="40" id="twvHL" transform="translate(-20,-20)" width="40" xlink:href="file:///K:/W/Binkeul-PW-2018/pinkeul/-prepare-script/UKODE-SAMPLE/EMOJI/emoji/cow.png" /><image height="40" id="twvlD" transform="translate(-20,-20)" width="40" xlink:href="file:///K:/W/Binkeul-PW-2018/pinkeul/-prepare-script/UKODE-SAMPLE/EMOJI/emoji/moneybag.png" /><image height="40" id="twveP" transform="translate(-20,-20)" width="40" xlink:href="file:///K:/W/Binkeul-PW-2018/pinkeul/-prepare-script/UKODE-SAMPLE/EMOJI/emoji/balloon.png" /><image height="40" id="twvEL" transform="translate(-20,-20)" width="40" xlink:href="file:///K:/W/Binkeul-PW-2018/pinkeul/-prepare-script/UKODE-SAMPLE/EMOJI/emoji/anchor.png" /><image height="40" id="twvObV" transform="translate(-20,-20)" width="40" xlink:href="file:///K:/W/Binkeul-PW-2018/pinkeul/-prepare-script/UKODE-SAMPLE/EMOJI/emoji/weary.png" /><image height="40" id="twvObB" transform="translate(-20,-20)" width="40" xlink:href="file:///K:/W/Binkeul-PW-2018/pinkeul/-prepare-script/UKODE-SAMPLE/EMOJI/emoji/two_women_holding_hands.png" /><image height="40" id="twvjP" transform="translate(-20,-20)" width="40" xlink:href="file:///K:/W/Binkeul-PW-2018/pinkeul/-prepare-script/UKODE-SAMPLE/EMOJI/emoji/high_heel.png" /><image height="40" id="twveH" transform="translate(-20,-20)" width="40" xlink:href="file:///K:/W/Binkeul-PW-2018/pinkeul/-prepare-script/UKODE-SAMPLE/EMOJI/emoji/arrow_up.png" /><path d="M 0-7-3-4-3-3-5-3-5-5-4-5-1-8-1-9 1-9 1-7zM-1 5-1 3 1 3 1 5zM 3 9 3-1 5-1 5 9zM-5-1-3-1-3 9-5 9zM 1-4 1 1-1 1-1-5 0-5 3-8 3-9 5-9 5-7 4-7zM 9-7 8-7 5-4 5-3 3-3 3-5 4-5 7-8 7-9 9-9zM-1 7 1 7 1 9-1 9z" id="vbCPGk" transform="translate(0,0) skewX(-5)" /><path d="M-9-9-7-9-7-8-6-7-5-8-5-9-3-9-3-7-4-7-5-6-4-5 5-5 5-3-3-3-3 5-5 5-5-4-6-5-7-4-7-3-9-3-9-5-8-5-7-6-8-7-9-7zM-1 5-1 3 0 3 2 1-1 1-1-1 5-1 5 1 4 1 2 3 9 3 9 5 8 5 6 7 9 7 9 9 3 9 3 7 4 7 6 5z" id="ZqCqaM" transform="translate(0,0) skewX(-5)" /><path d="M-9-9-7-9-7-8-4-5-2-5-4-7-5-7-5-9-3-9-3-8 0-5 3-8 3-9 5-9 5-7 4-7 2-5 4-5 7-8 7-9 9-9 9-7 8-7 6-5 9-5 9-3 5-3 5 5 3 5 3-3 1-3 1 1-1 1-1-3-3-3-3 5-5 5-5-3-9-3-9-5-6-5-8-7-9-7z" id="tRAoFM" transform="translate(0,0) skewX(-5)" /><path d="M-5 5-5-9-3-9-3-5 1-5 1-3-3-3-3 3 3 3 3 1-1 1-1-1 5-1 5 4 8 7 9 7 9 9 7 9 7 8 4 5z" id="ZvCYLC" transform="translate(0,0) skewX(-5)" /><path d="M 0 1-1 1-1-2-3 0-3 5-5 5-5-1-4-1-1-4-1-9 1-9 1 0 4 3 5 3 5 5 3 5 3 4z" id="UkOtxk" transform="translate(0,0) skewX(-5)" /><image height="40" id="twvJC" transform="translate(-20,-20)" width="40" xlink:href="file:///K:/W/Binkeul-PW-2018/pinkeul/-prepare-script/UKODE-SAMPLE/EMOJI/emoji/fuelpump.png" /><path d="M-4 3-3 3-3 5-4 5-7 8-7 9-9 9-9 7-8 7-5 4-8 1-9 1-9-5-7-5-7-4-4-1-3-1-3 1-5 1-5 0-7-2-7 0zM-1 5-1-5 5-5 5-3 1-3 1 3 4 3 7 0 7-2 5 0 5 1 3 1 3-1 4-1 7-4 7-5 9-5 9 1 8 1 5 4 8 7 9 7 9 9 7 9 7 8 4 5z" id="XxOyXr" transform="translate(0,0) skewX(-5)" /><image height="40" id="twvOAw" transform="translate(-20,-20)" width="40" xlink:href="file:///K:/W/Binkeul-PW-2018/pinkeul/-prepare-script/UKODE-SAMPLE/EMOJI/emoji/ski.png" /><path d="M 8-1 9-1 9 1 5 1 5 3 9 3 9 5 8 5 5 8 5 9-1 9-1 7 4 7 6 5 3 5 3-1 6-1 4-3 1-3 1 5-5 5-5-1-4-1-1-4-1-5 5-5 5-4zM-1-2-3 0-3 3-1 3z" id="OmWTcJ" transform="translate(0,0) skewX(-5)" /><path d="M-1 5-1 3 1 3 1 5zM-3-3-3-1 5-1 5 5 3 5 3 1-5 1-5-9 1-9 1-7-3-7-3-5 1-5 1-3zM-5 5-5 3-3 3-3 5z" id="ZqWVeA" transform="translate(0,0) skewX(-5)" /><path d="M 1 0 1 5-1 5-1-1 0-1 3-4 3-5 5-5 5-3 4-3zM 7-4 7-5 9-5 9-3 8-3 5 0 5 5 3 5 3-1 4-1zM-5-1-4-1-1-4-1-5 1-5 1-3 0-3-3 0-3 5-5 5z" id="OIAyYT" transform="translate(0,0) skewX(-5)" /><path d="M 8 3 9 3 9 5 7 5 7 4 4 1 1 4 1 5-1 5-1 3 0 3 3 0 3-5 5-5 5 0zM-9-1-7-1-7 5-9 5zM-5-1-3-1-3 4 0 7 1 7 1 9-1 9-1 8-4 5-7 8-7 9-9 9-9 7-8 7-5 4zM-1-5 1-5 1 1-1 1zM 9 1 7 1 7-5 9-5zM-3-3-5-3-5-5-3-5z" id="yNUXKw" transform="translate(0,0) skewX(-5)" /><path d="M-1 5-1 3 1 3 1 5zM-5-1-3-1-3 5-5 5zM-1-5 1-5 1 1-1 1zM 5 5 3 5 3-1 5-1zM-1 7 1 7 1 9-1 9z" id="UBMtXw" transform="translate(0,0) skewX(-5)" /><path d="M-2 5 0 7 2 5zM 1 8 1 9-1 9-1 8-4 5-5 5-5-1-3-1-3 3 3 3 3-1 5-1 5 5 4 5zM-1-5 1-5 1 1-1 1z" id="UGIwzi" transform="translate(0,0) skewX(-5)" /><path d="M 3-2 1 0 1 1-1 1-1-1 0-1 3-4 3-5 5-5 5 5 2 5 4 7 5 7 5 9 3 9 3 8 1 6 1 9-1 9-1 6-3 8-3 9-5 9-5 7-4 7-2 5-5 5-5-5-3-5-3 3 3 3z" id="QRMzwM" transform="translate(0,0) skewX(-5)" /><image height="40" id="twvMl" transform="translate(-20,-20)" width="40" xlink:href="file:///K:/W/Binkeul-PW-2018/pinkeul/-prepare-script/UKODE-SAMPLE/EMOJI/emoji/o2.png" /><image height="40" id="twvKl" transform="translate(-20,-20)" width="40" xlink:href="file:///K:/W/Binkeul-PW-2018/pinkeul/-prepare-script/UKODE-SAMPLE/EMOJI/emoji/iphone.png" /><image height="40" id="twvJl" transform="translate(-20,-20)" width="40" xlink:href="file:///K:/W/Binkeul-PW-2018/pinkeul/-prepare-script/UKODE-SAMPLE/EMOJI/emoji/green_heart.png" /><image height="40" id="twveh" transform="translate(-20,-20)" width="40" xlink:href="file:///K:/W/Binkeul-PW-2018/pinkeul/-prepare-script/UKODE-SAMPLE/EMOJI/emoji/arrow_upper_left.png" /><image height="40" id="twvih" transform="translate(-20,-20)" width="40" xlink:href="file:///K:/W/Binkeul-PW-2018/pinkeul/-prepare-script/UKODE-SAMPLE/EMOJI/emoji/fish_cake.png" /><image height="40" id="twvnl" transform="translate(-20,-20)" width="40" xlink:href="file:///K:/W/Binkeul-PW-2018/pinkeul/-prepare-script/UKODE-SAMPLE/EMOJI/emoji/relaxed.png" /><image height="40" id="twvnd" transform="translate(-20,-20)" width="40" xlink:href="file:///K:/W/Binkeul-PW-2018/pinkeul/-prepare-script/UKODE-SAMPLE/EMOJI/emoji/radio_button.png" /><image height="40" id="twvOAd" transform="translate(-20,-20)" width="40" xlink:href="file:///K:/W/Binkeul-PW-2018/pinkeul/-prepare-script/UKODE-SAMPLE/EMOJI/emoji/rose.png" /><image height="40" id="twvOar" transform="translate(-20,-20)" width="40" xlink:href="file:///K:/W/Binkeul-PW-2018/pinkeul/-prepare-script/UKODE-SAMPLE/EMOJI/emoji/statue_of_liberty.png" /><path d="M 1-4 3-2 3-5 5-5 5-2 7-4 4-7zM-3 5-3 9-9 9-9 7-5 7-5 5-9 5-9-1-7-1-7 3-5 3-5-5 0-5 3-8 3-9 5-9 5-8 8-5 9-5 9-3 8-3 5 0 5 5 4 5 1 8 1 9-1 9-1 7 0 7 3 4 3 0 0-3-3-3-3 3-1 3-1-1 1-1 1 5z" id="SCAOjA" transform="translate(0,0) skewX(-5)" /><path d="M-5-3-5-9 1-9 1-5 5-5 5 1 1 1 1 3 5 3 5 5 2 5 4 7 5 7 5 9 3 9 3 8 1 6 1 9-1 9-1 8-4 5-5 5-5 3-3 3-3 4-1 6-1 4-4 1-5 1-5-1-3-1-3 0-1 2-1-3zM-3-5-1-5-1-7-3-7zM 3-3 1-3 1-1 3-1z" id="ydKxkv" transform="translate(0,0) skewX(-5)" /><path d="M-1 5-1 4-3 2-3 9-9 9-9 7-5 7-5-5-3-5-3-4 0-1 5-1 5 1-1 1-1 0-3-2-3 0 0 3 5 3 5 5zM-1-3-1-5 1-5 1-3zM 9-3 7-3 7-5 9-5zM 5-3 3-3 3-9 5-9z" id="PFUVjA" transform="translate(0,0) skewX(-5)" /><path d="M 1-4 4-1 7-4 7-5 9-5 9-3 8-3 6-1 9-1 9 1 6 1 8 3 9 3 9 5 7 5 7 4 5 2 5 4 8 7 9 7 9 9 7 9 7 8 5 6 5 9 3 9 3 1-1 1-1 0-3-2-3 0 0 3 1 3 1 5-1 5-1 4-3 2-3 5-9 5-9 3-5 3-5-2-7 0-7 1-9 1-9-1-8-1-5-4-5-5-3-5-3-4 0-1 2-1 0-3-1-3-1-5 1-5z" id="wTEwzf" transform="translate(0,0) skewX(-5)" /><path d="M-1 5-1 4-3 2-3 5-5 5-5 1-7 1-7 5-9 5-9-1-5-1-5-5 0-5 3-8 3-9 9-9 9-7 4-7 1-4 1 0 4 3 5 3 5 5 3 5 3 4 1 2 1 5zM-3-3-3 0-1 2-1-3zM 3 1 3-5 9-5 9 1zM 7-3 5-3 5-1 7-1z" id="vCAuGo" transform="translate(0,0) skewX(-5)" /><path d="M 2-1 5-1 5 9 3 9 3 5-3 5-3 9-5 9-5-1 0-1 2-3-1-3-1-5 4-5 7-8 7-9 9-9 9-7 8-7 6-5 9-5 9-3 4-3zM 3 3 3 1-3 1-3 3z" id="pxSRDk" transform="translate(0,0) skewX(-5)" /><path d="M-9-9-7-9-7-7-9-7zM-1 5-1 4-3 2-3 5-5 5-5 2-7 4-7 5-9 5-9 3-8 3-5 0-5-3-9-3-9-5-5-5-5-9-3-9-3-5 3-5 3-7-1-7-1-9 5-9 5-5 7-5 7-9 9-9 9-3 5-3 5 1-1 1-1-1 3-1 3-3-3-3-3 0 0 3 1 3 1 5zM-9-1-7-1-7 1-9 1z" id="PZMVVo" transform="translate(0,0) skewX(-5)" /><path d="M-5 7-4 7-2 5-5 5-5-1 1-1 1 1-3 1-3 3 0 3 3 0 3-3-1-3-1-5 5-5 5 1 4 1 2 3 5 3 5 5 0 5-3 8-3 9-5 9zM-3-3-5-3-5-5-3-5zM-9-1-7-1-7 1-9 1z" id="vHMWjW" transform="translate(0,0) skewX(-5)" /><path d="M-3 5-3 9-9 9-9 7-5 7-5 5-9 5-9 3-5 3-5-1-1-1-1-5 5-5 5-3 1-3 1-1 5-1 5 1 1 1 1 5zM-3 1-3 3-1 3-1 1z" id="UGYPig" transform="translate(0,0) skewX(-5)" /><path d="M 1 0 1 1-3 1-3 3 5 3 5 5-9 5-9 3-5 3-5-5 5-5 5-3 4-3zM-3-3-3-1 0-1 2-3z" id="ZWIXGF" transform="translate(0,0) skewX(-5)" /><path d="M-3-3-3-1-1-1-1-3zM-5-5 1-5 1 1-3 1-3 9-5 9zM 7 1 3 1 3-5 9-5 9 9 7 9zM 7-3 5-3 5-1 7-1z" id="WpKoCy" transform="translate(0,0) skewX(-5)" /><image height="40" id="twvnC" transform="translate(-20,-20)" width="40" xlink:href="file:///K:/W/Binkeul-PW-2018/pinkeul/-prepare-script/UKODE-SAMPLE/EMOJI/emoji/rabbit2.png" /><image height="40" id="twvGh" transform="translate(-20,-20)" width="40" xlink:href="file:///K:/W/Binkeul-PW-2018/pinkeul/-prepare-script/UKODE-SAMPLE/EMOJI/emoji/cat2.png" /><image height="40" id="twvhj" transform="translate(-20,-20)" width="40" xlink:href="file:///K:/W/Binkeul-PW-2018/pinkeul/-prepare-script/UKODE-SAMPLE/EMOJI/emoji/dizzy.png" /></defs><g fill="#515A5B" stroke="gray" stroke-linejoin="round" stroke-width="0"><use x="6" xlink:href="#vSQXEi" y="0" /><use x="37" xlink:href="#twvHL" y="0" /><use x="68" xlink:href="#PZMVVo" y="0" /><use x="99" xlink:href="#twvOag" y="0" /><use x="130" xlink:href="#SCAOjA" y="0" /><use x="151" xlink:href="#ZuWUEx" y="0" /><use x="164" xlink:href="#weSVsr" y="0" /><use x="181" xlink:href="#ZZUOPt" y="0" /><use x="208" xlink:href="#twvih" y="0" /><use x="249" xlink:href="#twvLN" y="0" /><use x="290" xlink:href="#twvFJ" y="0" /><use x="317" xlink:href="#ZqWVeA" y="0" /><use x="330" xlink:href="#XQIWAG" y="0" /><use x="357" xlink:href="#twvGe" y="0" /><use x="398" xlink:href="#twvjL" y="0" /><use x="421" xlink:href="#twWoAq" y="0" /><use x="452" xlink:href="#twvNi" y="0" /><use x="479" xlink:href="#UjWqfa" y="0" /><use x="20" xlink:href="#twveh" y="41" /><use x="47" xlink:href="#ydKxkv" y="41" /><use x="60" xlink:href="#yAYPGh" y="41" /><use x="91" xlink:href="#twviF" y="41" /><use x="122" xlink:href="#xxKrof" y="41" /><use x="149" xlink:href="#twvgO" y="41" /><use x="176" xlink:href="#vzCxHd" y="41" /><use x="203" xlink:href="#twvGm" y="41" /><use x="234" xlink:href="#vHMWjW" y="41" /><use x="251" xlink:href="#ycKvgz" y="41" /><use x="268" xlink:href="#TrCuIc" y="41" /><use x="299" xlink:href="#twvFe" y="41" /><use x="326" xlink:href="#UjWqZc" y="41" /><use x="357" xlink:href="#twvOCI" y="41" /><use x="398" xlink:href="#twvJk" y="41" /><use x="429" xlink:href="#RNUXuQ" y="41" /><use x="460" xlink:href="#twvMl" y="41" /><use x="487" xlink:href="#wfSXEk" y="41" /><use x="10" xlink:href="#ybOYDR" y="82" /><use x="37" xlink:href="#twvlI" y="82" /><use x="78" xlink:href="#twvjn" y="82" /><use x="109" xlink:href="#SzCXgL" y="82" /><use x="140" xlink:href="#twvObl" y="82" /><use x="181" xlink:href="#twveE" y="82" /><use x="222" xlink:href="#twvGB" y="82" /><use x="249" xlink:href="#ycGxUd" y="82" /><use x="266" xlink:href="#ZpWVVu" y="82" /><use x="279" xlink:href="#VYYXTP" y="82" /><use x="310" xlink:href="#twvJi" y="82" /><use x="337" xlink:href="#UFQXdi" y="82" /><use x="350" xlink:href="#OIAyYT" y="82" /><use x="371" xlink:href="#ZUAUec" y="82" /><use x="398" xlink:href="#twvhj" y="82" /><use x="439" xlink:href="#twvObT" y="82" /><use x="20" xlink:href="#twvkc" y="123" /><use x="61" xlink:href="#twvGk" y="123" /><use x="102" xlink:href="#twvOBU" y="123" /><use x="129" xlink:href="#weWVVo" y="123" /><use x="156" xlink:href="#twvjb" y="123" /><use x="197" xlink:href="#twvKl" y="123" /><use x="228" xlink:href="#yNUXKw" y="123" /><use x="259" xlink:href="#twvJl" y="123" /><use x="300" xlink:href="#twvEK" y="123" /><use x="341" xlink:href="#twvOad" y="123" /><use x="382" xlink:href="#twviC" y="123" /><use x="413" xlink:href="#ZPEPLQ" y="123" /><use x="444" xlink:href="#twvOBk" y="123" /><use x="471" xlink:href="#OmWTcJ" y="123" /><use x="20" xlink:href="#twvGh" y="164" /><use x="47" xlink:href="#ybWWUc" y="164" /><use x="64" xlink:href="#tzKVTA" y="164" /><use x="81" xlink:href="#ZqCqaM" y="164" /><use x="112" xlink:href="#twvOAI" y="164" /><use x="143" xlink:href="#ofKVEm" y="164" /><use x="160" xlink:href="#UGIwzi" y="164" /><use x="187" xlink:href="#twveo" y="164" /><use x="228" xlink:href="#twvHf" y="164" /><use x="269" xlink:href="#twveB" y="164" /><use x="296" xlink:href="#QRMzwM" y="164" /><use x="323" xlink:href="#twvKe" y="164" /><use x="364" xlink:href="#twvKF" y="164" /><use x="391" xlink:href="#UBMtXw" y="164" /><use x="418" xlink:href="#twvMo" y="164" /><use x="449" xlink:href="#vSQxqo" y="164" /><use x="20" xlink:href="#twvFA" y="205" /><use x="51" xlink:href="#pRUUWQ" y="205" /><use x="82" xlink:href="#twvNa" y="205" /><use x="123" xlink:href="#twvjg" y="205" /><use x="150" xlink:href="#pcOqgr" y="205" /><use x="181" xlink:href="#twvOba" y="205" /><use x="212" xlink:href="#PuGViZ" y="205" /><use x="229" xlink:href="#WTUVlb" y="205" /><use x="260" xlink:href="#twvKa" y="205" /><use x="287" xlink:href="#xGQvug" y="205" /><use x="308" xlink:href="#ZNUUpC" y="205" /><use x="335" xlink:href="#twvnl" y="205" /><use x="376" xlink:href="#twvfO" y="205" /><use x="417" xlink:href="#twvlK" y="205" /><use x="458" xlink:href="#twvjj" y="205" /><use x="20" xlink:href="#twvJe" y="246" /><use x="61" xlink:href="#twvhe" y="246" /><use x="102" xlink:href="#twvnd" y="246" /><use x="143" xlink:href="#twvin" y="246" /><use x="170" xlink:href="#pxCyYG" y="246" /><use x="201" xlink:href="#twvlD" y="246" /><use x="228" xlink:href="#vbCPGk" y="246" /><use x="259" xlink:href="#twvOAd" y="246" /><use x="290" xlink:href="#roGSCy" y="246" /><use x="321" xlink:href="#twvObX" y="246" /><use x="362" xlink:href="#twvGF" y="246" /><use x="393" xlink:href="#SzCPIs" y="246" /><use x="410" xlink:href="#pxSRDk" y="246" /><use x="441" xlink:href="#twvNn" y="246" /><use x="20" xlink:href="#twvEO" y="287" /><use x="51" xlink:href="#vCAuGo" y="287" /><use x="82" xlink:href="#twvhn" y="287" /><use x="123" xlink:href="#twvlM" y="287" /><use x="164" xlink:href="#twvjJ" y="287" /><use x="205" xlink:href="#twvnj" y="287" /><use x="246" xlink:href="#twvNm" y="287" /><use x="287" xlink:href="#twvmF" y="287" /><use x="318" xlink:href="#UAUuJf" y="287" /><use x="331" xlink:href="#ZOYvrv" y="287" /><use x="362" xlink:href="#twveP" y="287" /><use x="393" xlink:href="#TkWoAU" y="287" /><use x="424" xlink:href="#twvfB" y="287" /><use x="451" xlink:href="#ZvCYLC" y="287" /><use x="472" xlink:href="#XxOyXr" y="287" /><use x="20" xlink:href="#twvIO" y="328" /><use x="51" xlink:href="#ULEUlq" y="328" /><use x="78" xlink:href="#twvGA" y="328" /><use x="109" xlink:href="#PFUVjA" y="328" /><use x="130" xlink:href="#XEARwj" y="328" /><use x="157" xlink:href="#twvLK" y="328" /><use x="184" xlink:href="#yhCUyE" y="328" /><use x="201" xlink:href="#SrGvrf" y="328" /><use x="218" xlink:href="#UAExRM" y="328" /><use x="235" xlink:href="#WdOVlz" y="328" /><use x="262" xlink:href="#twvlG" y="328" /><use x="289" xlink:href="#zJYtXe" y="328" /><use x="310" xlink:href="#ZHEyyb" y="328" /><use x="327" xlink:href="#UkOtxk" y="328" /><use x="340" xlink:href="#UKMVsq" y="328" /><use x="367" xlink:href="#twvOac" y="328" /><use x="408" xlink:href="#twvfm" y="328" /><use x="449" xlink:href="#twviG" y="328" /><use x="476" xlink:href="#WPUvZP" y="328" /><use x="6" xlink:href="#SWQSrm" y="369" /><use x="37" xlink:href="#twvjA" y="369" /><use x="78" xlink:href="#twvEL" y="369" /><use x="105" xlink:href="#XfWUZo" y="369" /><use x="126" xlink:href="#QPEoHQ" y="369" /><use x="143" xlink:href="#ZOYyPU" y="369" /><use x="156" xlink:href="#ybKYnn" y="369" /><use x="169" xlink:href="#SWIUTL" y="369" /><use x="200" xlink:href="#twvOar" y="369" /><use x="241" xlink:href="#twvObV" y="369" /><use x="282" xlink:href="#twvOaq" y="369" /><use x="323" xlink:href="#twvOAu" y="369" /><use x="354" xlink:href="#wTEwzf" y="369" /><use x="375" xlink:href="#UaCVEc" y="369" /><use x="388" xlink:href="#QQUUcM" y="369" /><use x="419" xlink:href="#twvOBd" y="369" /><use x="446" xlink:href="#TnWRzB" y="369" /><use x="467" xlink:href="#UGYPig" y="369" /><use x="484" xlink:href="#xtWVJj" y="369" /><use x="20" xlink:href="#twvKm" y="410" /><use x="61" xlink:href="#twvhM" y="410" /><use x="102" xlink:href="#twvJC" y="410" /><use x="143" xlink:href="#twvio" y="410" /><use x="184" xlink:href="#twvFB" y="410" /><use x="225" xlink:href="#twvGf" y="410" /><use x="256" xlink:href="#vjKVFJ" y="410" /><use x="273" xlink:href="#tRAoFM" y="410" /><use x="304" xlink:href="#twvOAr" y="410" /><use x="345" xlink:href="#twvObB" y="410" /><use x="372" xlink:href="#yREVMt" y="410" /><use x="403" xlink:href="#twvjP" y="410" /><use x="430" xlink:href="#yWYVCC" y="410" /><use x="457" xlink:href="#twvOAw" y="410" /><use x="488" xlink:href="#OBMVvL" y="410" /><use x="20" xlink:href="#twvMM" y="451" /><use x="51" xlink:href="#OCIOQK" y="451" /><use x="82" xlink:href="#twvOAt" y="451" /><use x="123" xlink:href="#twvkn" y="451" /><use x="150" xlink:href="#UUEoGK" y="451" /><use x="181" xlink:href="#twveH" y="451" /><use x="222" xlink:href="#twvMa" y="451" /><use x="263" xlink:href="#twvff" y="451" /><use x="304" xlink:href="#twvnC" y="451" /><use x="331" xlink:href="#QPYYNk" y="451" /><use x="362" xlink:href="#twvgD" y="451" /><use x="403" xlink:href="#twvOAL" y="451" /><use x="434" xlink:href="#ZQAoFM" y="451" /><use x="461" xlink:href="#twvmk" y="451" /><use x="492" xlink:href="#ZWIXGF" y="451" /><use x="6" xlink:href="#ycKWai" y="492" /><use x="19" xlink:href="#THIVef" y="492" /><use x="50" xlink:href="#twvfb" y="492" /><use x="79" xlink:href="#ZVMoyt" y="492" /><use x="94" xlink:href="#WpKoCy" y="492" /><use x="115" xlink:href="#vhKWmH" y="492" /></g></svg>