<svg baseProfile="full" height="330" version="1.1" viewBox="-3 -21 500 165" width="1000" xmlns="http://www.w3.org/2000/svg" xmlns:ev="http://www.w3.org/2001/xml-events" xmlns:xlink="http://www.w3.org/1999/xlink"><defs /><defs><path d="M-5 1-5-1-1-1-1-9 1-9 1 0 4 3 5 3 5 5 3 5 3 4 0 1z" id="twWtxk" transform="translate(0,0) skewX(-5)" /><image height="40" id="twvObz" transform="translate(-20,-20)" width="40" xlink:href="file:///K:/W/Binkeul-PW-2018/pinkeul/-prepare-script/UKODE-SAMPLE/EMOJI/emoji/white_medium_small_square.png" /><path d="M-1 5-1 3 1 3 1 5zM-5 9-5-5-3-5-3-1-1-1-1-9 1-9 1-5 3-5 3-9 5-9 5-3 1-3 1-1 5-1 5 9zM-3 7 3 7 3 1-3 1z" id="uOAuhu" transform="translate(0,0) skewX(-5)" /><image height="40" id="twvNL" transform="translate(-20,-20)" width="40" xlink:href="file:///K:/W/Binkeul-PW-2018/pinkeul/-prepare-script/UKODE-SAMPLE/EMOJI/emoji/post_office.png" /><image height="40" id="twvOBW" transform="translate(-20,-20)" width="40" xlink:href="file:///K:/W/Binkeul-PW-2018/pinkeul/-prepare-script/UKODE-SAMPLE/EMOJI/emoji/tropical_fish.png" /><image height="40" id="twvNG" transform="translate(-20,-20)" width="40" xlink:href="file:///K:/W/Binkeul-PW-2018/pinkeul/-prepare-script/UKODE-SAMPLE/EMOJI/emoji/pizza.png" /><image height="40" id="twvjL" transform="translate(-20,-20)" width="40" xlink:href="file:///K:/W/Binkeul-PW-2018/pinkeul/-prepare-script/UKODE-SAMPLE/EMOJI/emoji/heavy_exclamation_mark.png" /><image height="40" id="twvJP" transform="translate(-20,-20)" width="40" xlink:href="file:///K:/W/Binkeul-PW-2018/pinkeul/-prepare-script/UKODE-SAMPLE/EMOJI/emoji/guitar.png" /><image height="40" id="twvlE" transform="translate(-20,-20)" width="40" xlink:href="file:///K:/W/Binkeul-PW-2018/pinkeul/-prepare-script/UKODE-SAMPLE/EMOJI/emoji/monkey.png" /><image height="40" id="twvmD" transform="translate(-20,-20)" width="40" xlink:href="file:///K:/W/Binkeul-PW-2018/pinkeul/-prepare-script/UKODE-SAMPLE/EMOJI/emoji/oncoming_taxi.png" /><image height="40" id="twvEB" transform="translate(-16,-20)" width="32" xlink:href="file:///K:/W/Binkeul-PW-2018/pinkeul/-prepare-script/UKODE-SAMPLE/sam-02.svg" /><image height="40" id="twvOAR" transform="translate(-20,-20)" width="40" xlink:href="file:///K:/W/Binkeul-PW-2018/pinkeul/-prepare-script/UKODE-SAMPLE/EMOJI/emoji/shaved_ice.png" /><path d="M-5 3 1 3 1 9-5 9zM-3 5-3 7-1 7-1 5zM 0 1-4 1-7 4-7 5-9 5-9 3-8 3-5 0-5-1-1-1-1-9 1-9 1 0 4 3 5 3 5 5 3 5 3 4z" id="UEYPbs" transform="translate(0,0) skewX(-5)" /><path d="M 1 0 1 2 3 0 3-1 5-1 5 1 4 1 2 3 4 3 7 0 7-3 4-3zM 0-7-3-4-3 1-5 1-5-5-4-5-1-8-1-9 1-9 1-7zM-5 7-4 7-1 4-1-5 0-5 3-8 3-9 5-9 5-7 4-7 1-4 1-2 3-4 3-5 4-5 7-8 7-9 9-9 9-7 8-7 6-5 9-5 9 1 8 1 5 4 5 5 0 5-3 8-3 9-5 9z" id="zGYyZL" transform="translate(0,0) skewX(-5)" /><path d="M-1 5-1 3 1 3 1 5zM-3-3-3-1-1-1-1-3zM 3 0 1-2 1 0 3 2zM 0 1-5 1-5-2-7 0-7 1-9 1-9-5-8-5-5-8-5-9-3-9-3-5 5-5 5-3 2-3 4-1 5-1 5 5 3 5 3 4zM-7 5-9 5-9 3-7 3zM-7-4-7-2-5-4-5-6zM-5 5-5 3-3 3-3 5z" id="ZrKvZo" transform="translate(0,0) skewX(-5)" /><image height="40" id="twvgL" transform="translate(-20,-20)" width="40" xlink:href="file:///K:/W/Binkeul-PW-2018/pinkeul/-prepare-script/UKODE-SAMPLE/EMOJI/emoji/clock630.png" /><image height="40" id="twvOAq" transform="translate(-20,-20)" width="40" xlink:href="file:///K:/W/Binkeul-PW-2018/pinkeul/-prepare-script/UKODE-SAMPLE/EMOJI/emoji/seven.png" /><image height="40" id="twvgc" transform="translate(-20,-20)" width="40" xlink:href="file:///K:/W/Binkeul-PW-2018/pinkeul/-prepare-script/UKODE-SAMPLE/EMOJI/emoji/clock1.png" /><image height="40" id="twvid" transform="translate(-20,-20)" width="40" xlink:href="file:///K:/W/Binkeul-PW-2018/pinkeul/-prepare-script/UKODE-SAMPLE/EMOJI/emoji/finnadie.png" /><path d="M-1 5-1 4-2 3-3 4-3 5-9 5-9 3-4 3-3 2-4 1-9 1-9-1-4-1-2-3-9-3-9-5-4-5-1-8-1-9 9-9 9-7 8-7 5-4 5-3 2-3 4-1 7-4 7-5 9-5 9 5 7 5 7 4 4 1 1 4 1 5zM 7 2 7-2 5 0zM 0 3 2 1 0 1-1 2zM 5-7 5-6 6-7zM 0-3-3 0-2 1-1 0-1-1 2-1zM 1-5 3-5 3-7 1-7zM-2-5-1-5-1-6z" id="VYMVFO" transform="translate(0,0) skewX(-5)" /><path d="M-9-9 5-9 5 5-9 5zM-3-3-3 1-7 1-7 3-1 3-1-1 3-1 3-7 1-7 1-3zM-3-5-1-5-1-7-3-7zM 3 3 3 1 1 1 1 3zM-5-7-7-7-7-1-5-1z" id="XGYPQL" transform="translate(0,0) skewX(-5)" /><path d="M 1-4 2-3 3-4 3-5 5-5 5-4 8-1 9-1 9 5-5 5-5-1-4-1-1-4-1-5 1-5zM 3 0 2-1 1 0 1 1-1 1-1-1 0-1 1-2 0-3-3 0-3 3 3 3zM 4-3 3-2 4-1 5-1 5 3 7 3 7 0z" id="OmWpRS" transform="translate(0,0) skewX(-5)" /><path d="M-5 5-5 3 5 3 5 5zM-3-4 0-1 2-1 0-3-1-3-1-5 3-5 3-9 5-9 5-3 2-3 4-1 5-1 5 1-5 1-5-1-2-1-4-3-5-3-5-9 1-9 1-7-3-7z" id="UzSqJS" transform="translate(0,0) skewX(-5)" /><path d="M 1-4 4-1 5-1 5 1 3 1 3 0 0-3-1-3-1-5 1-5zM 8-1 9-1 9 1 7 1 7 0 4-3 3-3 3-5 5-5 5-4zM-5 5-5-1-3-1-3 3 5 3 5 5zM-3-4 0-1 1-1 1 1-1 1-1 0-4-3-5-3-5-5-3-5z" id="pxCyYG" transform="translate(0,0) skewX(-5)" /><path d="M 3-2 1 0 1 1-1 1-1-1 0-1 3-4 3-5 5-5 5 1 4 1 1 4 4 7 5 7 5 9 3 9 3 8 0 5-3 8-3 9-5 9-5 8-8 5-9 5-9 3-7 3-7 4-5 6-5-3-9-3-9-5 1-5 1-3-3-3-3 6-1 4-1 3 0 3 3 0z" id="ZOYyPU" transform="translate(0,0) skewX(-5)" /><path d="M-3-3-3 1-5 1-5-5 5-5 5 1 3 1 3-3 1-3 1 3 9 3 9 9 7 9 7 5 2 5 4 7 5 7 5 9 3 9 3 8 1 6 1 9-1 9-1-3z" id="ZNMPRl" transform="translate(0,0) skewX(-5)" /><image height="40" id="twvga" transform="translate(-20,-20)" width="40" xlink:href="file:///K:/W/Binkeul-PW-2018/pinkeul/-prepare-script/UKODE-SAMPLE/EMOJI/emoji/cl.png" /><path d="M 1-4 4-1 5-1 5 9 3 9 3 6 1 8 1 9-1 9-1 6-3 8-3 9-5 9-5 4-8 1-9 1-9-5-7-5-7-4-5-2-5-5-3-5-3-4-1-2-1-5 1-5zM-4 3-3 3-3 6-1 4-1 3 1 3 1 6 3 4 3 0 1-2 1 1-1 1-1 0-3-2-3 1-5 1-5 0-7-2-7 0z" id="wKUOpk" transform="translate(0,0) skewX(-5)" /><path d="M-3-3-3 2-1 0-1-1 1-1 1 1 0 1-3 4-3 5-5 5-5-5 5-5 5 1 4 1 1 4 1 9-1 9-1 3 0 3 3 0 3-3z" id="ZRAVcQ" transform="translate(0,0) skewX(-5)" /><image height="40" id="twvKh" transform="translate(-20,-20)" width="40" xlink:href="file:///K:/W/Binkeul-PW-2018/pinkeul/-prepare-script/UKODE-SAMPLE/EMOJI/emoji/ideograph_advantage.png" /><image height="40" id="twvea" transform="translate(-20,-20)" width="40" xlink:href="file:///K:/W/Binkeul-PW-2018/pinkeul/-prepare-script/UKODE-SAMPLE/EMOJI/emoji/arrow_backward.png" /><image height="40" id="twvIm" transform="translate(-20,-20)" width="40" xlink:href="file:///K:/W/Binkeul-PW-2018/pinkeul/-prepare-script/UKODE-SAMPLE/EMOJI/emoji/expressionless.png" /><image height="40" id="twvGb" transform="translate(-20,-20)" width="40" xlink:href="file:///K:/W/Binkeul-PW-2018/pinkeul/-prepare-script/UKODE-SAMPLE/EMOJI/emoji/calendar.png" /><image height="40" id="twvhh" transform="translate(-20,-20)" width="40" xlink:href="file:///K:/W/Binkeul-PW-2018/pinkeul/-prepare-script/UKODE-SAMPLE/EMOJI/emoji/diamonds.png" /><image height="40" id="twvIp" transform="translate(-20,-20)" width="40" xlink:href="file:///K:/W/Binkeul-PW-2018/pinkeul/-prepare-script/UKODE-SAMPLE/EMOJI/emoji/family.png" /><image height="40" id="twvHe" transform="translate(-20,-20)" width="40" xlink:href="file:///K:/W/Binkeul-PW-2018/pinkeul/-prepare-script/UKODE-SAMPLE/EMOJI/emoji/confused.png" /><path d="M-1 5-1 4-3 2-3 4 0 7 1 7 1 9-9 9-9 7-2 7-4 5-5 5-5-1-3-1-3 0 0 3 3 0 3-5 5-5 5 1 4 1 1 4 1 5zM-3-3-5-3-5-5-3-5zM-1 1-1-1 1-1 1 1z" id="PZEXoA" transform="translate(0,0) skewX(-5)" /><path d="M 1-4 3-2 3-5 5-5 5-2 7-4 4-7zM-3 5-3 9-9 9-9 7-5 7-5 5-9 5-9-1-7-1-7 3-5 3-5-5 0-5 3-8 3-9 5-9 5-8 8-5 9-5 9-3 8-3 5 0 5 5 4 5 1 8 1 9-1 9-1 7 0 7 3 4 3 0 0-3-3-3-3 3-1 3-1-1 1-1 1 5z" id="SCAOjA" transform="translate(0,0) skewX(-5)" /><path d="M 0 5-3 8-3 9-5 9-5 8-8 5-9 5-9 3-8 3-5 0-5-2-7 0-7 1-9 1-9-1-8-1-5-4-5-5-3-5-3-4-2-3-1-4-1-5 5-5 5-3 0-3-1-2 0-1 5-1 5 1 0 1-3 4-3 5-5 5-5 3-4 3-1 0-2-1-3 0-3 1-4 1-7 4-4 7-1 4-1 3 5 3 5 5z" id="wrWwOG" transform="translate(0,0) skewX(-5)" /><path d="M-5 5-5-1-3-1-3 3 1 3 1 5zM 3 9 3 4 0 1-1 1-1 0-4-3-5-3-5-5-3-5-3-4 0-1 1-1 1 0 4 3 9 3 9 5 5 5 5 9zM-1-3-1-7-5-7-5-9 1-9 1-5 5-5 5 1 3 1 3-3z" id="vzKoUS" transform="translate(0,0) skewX(-5)" /><path d="M-9 5-9-1-7-1-7 3-1 3-1 1-5 1-5-1-1-1-1-3-5-3-5-5 1-5 1-1 5-1 5 3 7 3 7-1 9-1 9 5zM 3 3 3 1 1 1 1 3z" id="sEYPiq" transform="translate(0,0) skewX(-5)" /><path d="M 2-1 9-1 9 1 1 1 1 5-1 5-1 1-9 1-9-1-2-1-4-3-5-3-5-5-3-5-3-4 0-1 3-4 3-5 5-5 5-3 4-3zM-1 7 1 7 1 9-1 9z" id="vSQxqo" transform="translate(0,0) skewX(-5)" /><path d="M 2-1 9-1 9 1 1 1 1 5-3 5-3 9-5 9-5 1-9 1-9-1 0-1 3-4 3-6 1-4 1-3-9-3-9-5-8-5-5-8-5-9 5-9 5-3 4-3zM 9 3 9 5 7 5 7 3zM-3-5-1-5-1-7-3-7zM 3 3 5 3 5 5 3 5zM-3 1-3 3-1 3-1 1zM-5-5-5-6-6-5zM 1-6 2-7 1-7z" id="roGSCy" transform="translate(0,0) skewX(-5)" /><path d="M 3-2 1 0 1 1-3 1-3 9-5 9-5 6-7 8-7 9-9 9-9 7-8 7-5 4-5 1-9 1-9-1-8-1-5-4-5-5-3-5-3-3-4-3-6-1-1-1-1-5 1-5 1-2 3-4 3-5 5-5 5 1 4 1 1 4 4 7 5 7 5 9 3 9 3 8 0 5-1 5-1 3 0 3 3 0z" id="vCQRKj" transform="translate(0,0) skewX(-5)" /><path d="M-1 5-1 3 2 3 0 1-9 1-9-1-8-1-5-4-5-5-3-5-3-3-4-3-6-1 7-1 7-5 9-5 9 1 2 1 4 3 5 3 5 5zM-1-3-1-5 5-5 5-3z" id="yAIVlh" transform="translate(0,0) skewX(-5)" /><path d="M-5 7-4 7-2 5-5 5-5-1 1-1 1 1-3 1-3 3 0 3 3 0 3-3-1-3-1-5 5-5 5 1 4 1 2 3 5 3 5 5 0 5-3 8-3 9-5 9zM-3-3-5-3-5-5-3-5zM-9-1-7-1-7 1-9 1z" id="vHMWjW" transform="translate(0,0) skewX(-5)" /><image height="40" id="twvlp" transform="translate(-20,-20)" width="40" xlink:href="file:///K:/W/Binkeul-PW-2018/pinkeul/-prepare-script/UKODE-SAMPLE/EMOJI/emoji/negative_squared_cross_mark.png" /><path d="M 2-1 5-1 5 1 4 1 3 2 4 3 5 3 5 5 3 5 3 4 2 3 1 4 1 5 0 5-3 8-3 9-5 9-5-1-2-1-4-3-5-3-5-5-3-5-3-4-1-2-1-5 1-5 1-2 3-4 3-5 5-5 5-3 4-3zM-3 6-1 4-1 3 0 3 1 2 0 1-3 4zM-2 1-3 1-3 2z" id="vWEtKc" transform="translate(0,0) skewX(-5)" /><path d="M 3-2 2-1 3-1zM 0 5-1 5-1 3 0 3 2 1 0 1-3 4 0 7 1 7 1 9-1 9-1 8-4 5-5 5-5 3-4 3-2 1-5 1-5-1-4-1-1-4-1-5 1-5 1-2 3-4 3-5 5-5 5 1 4 1 1 4 4 7 5 7 5 9 3 9 3 8zM-2-1-1-1-1-2z" id="UKMVsq" transform="translate(0,0) skewX(-5)" /><path d="M 3-2 1 0 1 1-9 1-9-1-8-1-5-4-5-5 5-5 5 1 4 1 2 3 7 3 7-1 9-1 9 5-1 5-1 3 0 3 3 0zM-3-3-3-1-1-1-1-3zM 3 9 3 7 5 7 5 9zM 7 7 9 7 9 9 7 9zM 1-3 1-2 2-3zM-6-1-5-1-5-2z" id="TKYRMn" transform="translate(0,0) skewX(-5)" /><image height="40" id="twvKc" transform="translate(-20,-20)" width="40" xlink:href="file:///K:/W/Binkeul-PW-2018/pinkeul/-prepare-script/UKODE-SAMPLE/EMOJI/emoji/hotsprings.png" /><image height="40" id="twvhD" transform="translate(-20,-20)" width="40" xlink:href="file:///K:/W/Binkeul-PW-2018/pinkeul/-prepare-script/UKODE-SAMPLE/EMOJI/emoji/dancer.png" /><path d="M-1 5-1 4-3 2-3 5-5 5-5 1-9 1-9-1-6-1-8-3-9-3-9-5-7-5-7-4-4-1-1-4-1-5 1-5 1-3 0-3-2-1 3-1 3-5 5-5 5-1 7-1 7-5 9-5 9 1 2 1 4 3 5 3 5 5 3 5 3 4 0 1-2 1 0 3 1 3 1 5z" id="XkGVup" transform="translate(0,0) skewX(-5)" /><image height="40" id="twvNd" transform="translate(-20,-20)" width="40" xlink:href="file:///K:/W/Binkeul-PW-2018/pinkeul/-prepare-script/UKODE-SAMPLE/EMOJI/emoji/pig2.png" /><image height="40" id="twveJ" transform="translate(-20,-20)" width="40" xlink:href="file:///K:/W/Binkeul-PW-2018/pinkeul/-prepare-script/UKODE-SAMPLE/EMOJI/emoji/arrow_up_small.png" /><image height="40" id="twvObD" transform="translate(-20,-20)" width="40" xlink:href="file:///K:/W/Binkeul-PW-2018/pinkeul/-prepare-script/UKODE-SAMPLE/EMOJI/emoji/u6307.png" /></defs><g fill="#515A5B" stroke="gray" stroke-linejoin="round" stroke-width="0"><use x="10" xlink:href="#wrWwOG" y="0" /><use x="23" xlink:href="#vWEtKc" y="0" /><use x="40" xlink:href="#wKUOpk" y="0" /><use x="53" xlink:href="#ZRAVcQ" y="0" /><use x="66" xlink:href="#vzKoUS" y="0" /><use x="97" xlink:href="#twvea" y="0" /><use x="138" xlink:href="#twvOBW" y="0" /><use x="169" xlink:href="#XGYPQL" y="0" /><use x="196" xlink:href="#twvObD" y="0" /><use x="227" xlink:href="#PZEXoA" y="0" /><use x="254" xlink:href="#twveJ" y="0" /><use x="295" xlink:href="#twvga" y="0" /><use x="326" xlink:href="#sEYPiq" y="0" /><use x="347" xlink:href="#vSQxqo" y="0" /><use x="368" xlink:href="#roGSCy" y="0" /><use x="385" xlink:href="#OmWpRS" y="0" /><use x="402" xlink:href="#zGYyZL" y="0" /><use x="433" xlink:href="#twvKh" y="0" /><use x="474" xlink:href="#twvNL" y="0" /><use x="10" xlink:href="#vCQRKj" y="41" /><use x="27" xlink:href="#ZrKvZo" y="41" /><use x="54" xlink:href="#twvNG" y="41" /><use x="81" xlink:href="#UzSqJS" y="41" /><use x="98" xlink:href="#VYMVFO" y="41" /><use x="115" xlink:href="#pxCyYG" y="41" /><use x="146" xlink:href="#twvjL" y="41" /><use x="177" xlink:href="#ZOYyPU" y="41" /><use x="204" xlink:href="#twvJP" y="41" /><use x="245" xlink:href="#twvIm" y="41" /><use x="276" xlink:href="#yAIVlh" y="41" /><use x="297" xlink:href="#vHMWjW" y="41" /><use x="314" xlink:href="#XkGVup" y="41" /><use x="345" xlink:href="#twvlE" y="41" /><use x="386" xlink:href="#twvGb" y="41" /><use x="417" xlink:href="#UEYPbs" y="41" /><use x="430" xlink:href="#twWtxk" y="41" /><use x="457" xlink:href="#twvmD" y="41" /><use x="20" xlink:href="#twvhh" y="82" /><use x="61" xlink:href="#twvIp" y="82" /><use x="102" xlink:href="#twvHe" y="82" /><use x="139" xlink:href="#twvEB" y="82" /><use x="176" xlink:href="#twvgc" y="82" /><use x="203" xlink:href="#UKMVsq" y="82" /><use x="230" xlink:href="#twvObz" y="82" /><use x="271" xlink:href="#twvOAR" y="82" /><use x="312" xlink:href="#twvid" y="82" /><use x="353" xlink:href="#twvNd" y="82" /><use x="384" xlink:href="#SCAOjA" y="82" /><use x="415" xlink:href="#twvgL" y="82" /><use x="456" xlink:href="#twvOAq" y="82" /><use x="20" xlink:href="#twvhD" y="123" /><use x="47" xlink:href="#ZNMPRl" y="123" /><use x="78" xlink:href="#twvlp" y="123" /><use x="119" xlink:href="#twvKc" y="123" /><use x="146" xlink:href="#uOAuhu" y="123" /><use x="163" xlink:href="#TKYRMn" y="123" /></g></svg>